<svg xmlns="http://www.w3.org/2000/svg" viewBox="0 0 297 297" width="297" height="297">
	<defs>
		<linearGradient id="grd1" gradientUnits="userSpaceOnUse"  x1="215.147" y1="129.321" x2="255.423" y2="129.321">
			<stop offset="0" stop-color="#ffffff"  />
			<stop offset="1" stop-color="#9d9fa2"  />
		</linearGradient>
		<linearGradient id="grd2" gradientUnits="userSpaceOnUse"  x1="44.121" y1="129.407" x2="84.385" y2="129.407">
			<stop offset="0" stop-color="#9d9fa2"  />
			<stop offset="1" stop-color="#ffffff"  />
		</linearGradient>
		<linearGradient id="grd3" gradientUnits="userSpaceOnUse"  x1="149.767" y1="62.277" x2="149.767" y2="22.172">
			<stop offset="0" stop-color="#ffffff"  />
			<stop offset="1" stop-color="#9d9fa2"  />
		</linearGradient>
		<linearGradient id="grd4" gradientUnits="userSpaceOnUse"  x1="149.825" y1="196.352" x2="149.825" y2="279.928">
			<stop offset="0" stop-color="#ffffff"  />
			<stop offset="1" stop-color="#9d9fa2"  />
		</linearGradient>
	</defs>
	<style>
		tspan { white-space:pre }
		.shp0 { fill: #feb63e } 
		.shp1 { opacity: 0.651;mix-blend-mode: soft-light;fill: url(#grd1) } 
		.shp2 { opacity: 0.651;mix-blend-mode: soft-light;fill: url(#grd2) } 
		.shp3 { fill: #545454 } 
		.shp4 { mix-blend-mode: soft-light;fill: url(#grd3) } 
		.shp5 { mix-blend-mode: soft-light;fill: url(#grd4) } 
	</style>
	<g id="Page 1">
		<path id="Path 1" class="shp0" d="M219.47,90.67c15.26,26.95 11.92,55.48 -3.25,78.12c-3.03,4.53 -2.52,10.54 1.29,14.43c4,4.07 9.23,9.36 14.3,14.35c1,0.98 2.64,0.84 3.46,-0.3c35.04,-49.13 36.04,-91.06 5.26,-135.88c-0.81,-1.18 -2.5,-1.32 -3.51,-0.31l-15.75,15.87c-3.61,3.64 -4.34,9.24 -1.81,13.7zM78.27,76.99c-4.43,-4.49 -10.49,-10.58 -15.86,-15.84c-1.01,-0.99 -2.68,-0.83 -3.48,0.33c-30.74,44.81 -29.7,86.74 5.38,135.88c0.82,1.15 2.49,1.28 3.49,0.27l14.19,-14.39c3.83,-3.89 4.34,-9.92 1.3,-14.45c-15.16,-22.64 -18.5,-51.17 -3.24,-78.12c2.52,-4.45 1.81,-10.04 -1.79,-13.68z" />
		<path id="Path 2" class="shp1" d="M219.47,90.66c15.26,26.95 11.92,55.48 -3.25,78.12c-3.03,4.53 -2.52,10.54 1.29,14.43c4,4.07 9.23,9.36 14.3,14.35c1,0.98 2.64,0.84 3.46,-0.3c35.04,-49.13 36.04,-91.06 5.26,-135.88c-0.81,-1.18 -2.5,-1.32 -3.51,-0.31l-15.75,15.87c-3.61,3.64 -4.34,9.24 -1.81,13.7z" />
		<path id="Path 3" class="shp2" d="M78.27,76.99c-4.43,-4.49 -10.49,-10.58 -15.85,-15.84c-1.01,-0.99 -2.68,-0.83 -3.48,0.33c-30.74,44.81 -29.7,86.74 5.38,135.88c0.82,1.15 2.49,1.28 3.49,0.27l14.19,-14.39c3.83,-3.89 4.34,-9.91 1.3,-14.45c-15.17,-22.64 -18.5,-51.17 -3.24,-78.12c2.52,-4.45 1.81,-10.04 -1.79,-13.68z" />
		<path id="Path 4" class="shp3" d="M108.41,61.12c25.8,-16.79 56.22,-17.45 82.86,0.12c4.56,3.01 10.59,2.47 14.46,-1.4l15.09,-15.1c0.93,-0.93 0.89,-2.47 -0.1,-3.33c-40.94,-35.5 -103.82,-35.34 -141.94,-0.37c-0.95,0.87 -0.96,2.37 -0.06,3.28l15.23,15.35c3.85,3.88 9.87,4.43 14.45,1.45z" />
		<path id="Path 5" class="shp4" d="M108.41,61.12c25.8,-16.79 56.22,-17.45 82.86,0.12c4.56,3.01 10.59,2.47 14.46,-1.4l15.09,-15.1c0.93,-0.93 0.89,-2.47 -0.1,-3.34c-40.94,-35.49 -103.82,-35.34 -141.94,-0.37c-0.95,0.87 -0.96,2.37 -0.06,3.29l15.23,15.35c3.85,3.88 9.87,4.43 14.45,1.45z" />
		<path id="Path 6" class="shp3" d="M100.19,198.88l-17.62,17.73c-0.77,0.78 -0.89,1.99 -0.27,2.89c8.85,12.81 36.22,39.4 57.05,57.79c5.86,5.17 14.65,5.25 20.56,0.13c17.5,-15.13 36.79,-34.27 57.29,-58.12c0.78,-0.91 0.73,-2.27 -0.12,-3.12l-17.5,-17.47c-3.53,-3.52 -8.97,-4.43 -13.36,-2.07c-23.75,12.72 -48.46,12.92 -72.67,0.26c-4.43,-2.31 -9.83,-1.58 -13.36,1.97z" />
		<path id="Path 7" class="shp5" d="M100.19,198.88l-17.62,17.73c-0.77,0.78 -0.89,1.99 -0.27,2.89c8.85,12.81 36.22,39.4 57.05,57.79c5.86,5.17 14.65,5.24 20.56,0.13c17.5,-15.13 36.79,-34.27 57.29,-58.12c0.78,-0.91 0.73,-2.27 -0.11,-3.12l-17.5,-17.47c-3.53,-3.52 -8.96,-4.42 -13.36,-2.07c-23.75,12.71 -48.46,12.92 -72.67,0.26c-4.43,-2.31 -9.83,-1.58 -13.36,1.97z" />
	</g>
</svg>