<svg height="512pt" viewBox="0 -76 512 512" width="512pt" xmlns="http://www.w3.org/2000/svg"><path d="m512 240-30 15 30 15v15c0 24.898438-20.097656 45-45 45h-135l-30-30h-92l-30 30h-135c-24.902344 0-45-20.101562-45-45v-105l27.300781-30h439.699219l45 30zm0 0" fill="#fdbf00"/><path d="m512 240-30 15 30 15v15c0 24.898438-20.097656 45-45 45h-135l-30-30h-46v-150h211l45 30zm0 0" fill="#ff9f00"/><path d="m491.300781 90-27 30h-437l-27.300781-30v-45c0-24.902344 20.097656-45 45-45h373.398438c17.101562 0 32.699218 9.601562 40.199218 24.902344zm0 0" fill="#fdbf00"/><path d="m491.300781 90-27 30h-208.300781v-120h162.398438c17.101562 0 32.699218 9.601562 40.199218 24.902344zm0 0" fill="#ff9f00"/><path d="m512 135v45h-512v-90h491.300781l19.199219 38.398438c.898438 2.101562 1.5 4.199218 1.5 6.601562zm0 0" fill="#53433f"/><path d="m512 135v45h-256v-90h235.300781l19.199219 38.398438c.898438 2.101562 1.5 4.199218 1.5 6.601562zm0 0" fill="#3e322e"/><path d="m105 360c-24.8125 0-45-20.1875-45-45s20.1875-45 45-45 45 20.1875 45 45-20.1875 45-45 45zm0 0" fill="#53433f"/><path d="m407 360c-24.8125 0-45-20.1875-45-45s20.1875-45 45-45 45 20.1875 45 45-20.1875 45-45 45zm0 0" fill="#3e322e"/><path d="m105 300c-8.277344 0-15 6.722656-15 15s6.722656 15 15 15 15-6.722656 15-15-6.722656-15-15-15zm0 0" fill="#ede9e8"/><path d="m407 300c-8.277344 0-15 6.722656-15 15s6.722656 15 15 15 15-6.722656 15-15-6.722656-15-15-15zm0 0" fill="#dfd7d5"/><path d="m60 60h30v150h-30zm0 0" fill="#fdbf00"/><path d="m422 60h30v150h-30zm0 0" fill="#ff9f00"/><path d="m332 60h30v150h-30zm0 0" fill="#ff9f00"/><path d="m150 60h30v150h-30zm0 0" fill="#fdbf00"/><path d="m452 255c0 8.289062 6.710938 15 15 15h45v-30h-45c-8.289062 0-15 6.710938-15 15zm0 0" fill="#ffd400"/><path d="m180 90h152v240h-152zm0 0" fill="#68544f"/><path d="m256 90h76v240h-76zm0 0" fill="#53433f"/></svg>