<svg height="480pt" viewBox="0 -124 480 480" width="480pt" xmlns="http://www.w3.org/2000/svg"><path d="m440 64c-4.417969 0-8-3.582031-8-8v-8h-32c-4.417969 0-8-3.582031-8-8s3.582031-8 8-8h40c4.417969 0 8 3.582031 8 8v16c0 4.417969-3.582031 8-8 8zm0 0" fill="#cdcdcd"/><path d="m456 200h-432c-8.835938 0-16-7.164062-16-16v-152c0-13.253906 10.746094-24 24-24h352c13.253906 0 24 10.746094 24 24v56l64 24v72c0 8.835938-7.164062 16-16 16zm0 0" fill="#f3af3e"/><path d="m296 64h32v152h-32zm0 0" fill="#d18d28"/><path d="m360 40h48v48h-48zm0 0" fill="#e4e4e2"/><path d="m360 48h40v40h-40zm0 0" fill="#ebebeb"/><path d="m264 136c4.417969 0 8-3.582031 8-8s-3.582031-8-8-8h-256v16zm0 0" fill="#d18d28"/><path d="m264 104c4.417969 0 8-3.582031 8-8s-3.582031-8-8-8h-256v16zm0 0" fill="#d18d28"/><path d="m440 100v20c0 8.835938 7.164062 16 16 16h16v-24zm0 0" fill="#fd9226"/><path d="m432 168h40v16c0 8.835938-7.164062 16-16 16h-128v-32h32" fill="#cdcdcd"/><path d="m8 168h256v32h-240c-8.835938 0-16-7.164062-16-16zm0 0" fill="#cdcdcd"/><path d="m352 200c0-26.507812 21.492188-48 48-48s48 21.492188 48 48zm0 0" fill="#cd9434"/><path d="m112 152c26.507812 0 48 21.492188 48 48h-96c0-26.507812 21.492188-48 48-48" fill="#cd9434"/><path d="m264 64h32v152h-32zm0 0" fill="#ea9d2d"/><path d="m264 40h64v32h-64zm0 0" fill="#cdcdcd"/><path d="m264 192h64v40h-64zm0 0" fill="#cdcdcd"/><path d="m264 184h64v16h-64zm0 0" fill="#b9b9b9"/><path d="m40 56h192v32h-192zm0 0" fill="#e4e4e2"/><g fill="#cbcbcb"><path d="m40 56h32v32h-32zm0 0"/><path d="m104 56h32v32h-32zm0 0"/><path d="m168 56h32v32h-32zm0 0"/></g><path d="m424 200c0 13.253906-10.746094 24-24 24s-24-10.746094-24-24 10.746094-24 24-24 24 10.746094 24 24zm0 0" fill="#ebebeb"/><path d="m136 200c0 13.253906-10.746094 24-24 24s-24-10.746094-24-24 10.746094-24 24-24 24 10.746094 24 24zm0 0" fill="#ebebeb"/><path d="m400 232c-17.671875 0-32-14.328125-32-32s14.328125-32 32-32 32 14.328125 32 32-14.328125 32-32 32zm0-48c-8.835938 0-16 7.164062-16 16s7.164062 16 16 16 16-7.164062 16-16-7.164062-16-16-16zm0 0" fill="#a8a8a8"/><path d="m112 232c-17.671875 0-32-14.328125-32-32s14.328125-32 32-32 32 14.328125 32 32-14.328125 32-32 32zm0-48c-8.835938 0-16 7.164062-16 16s7.164062 16 16 16 16-7.164062 16-16-7.164062-16-16-16zm0 0" fill="#a8a8a8"/><path d="m474.816406 104.503906-58.816406-22.046875v-34.457031h16v8c0 4.417969 3.582031 8 8 8s8-3.582031 8-8v-16c0-4.417969-3.582031-8-8-8h-24c0-17.671875-14.328125-32-32-32h-352c-17.671875 0-32 14.328125-32 32v152c0 13.253906 10.746094 24 24 24h57.136719c3.589843 14.113281 16.300781 23.992188 30.863281 23.992188s27.273438-9.878907 30.863281-23.992188h113.136719v16c0 4.417969 3.582031 8 8 8h64c4.417969 0 8-3.582031 8-8v-16h33.136719c3.589843 14.113281 16.300781 23.992188 30.863281 23.992188s27.273438-9.878907 30.863281-23.992188h25.136719c13.253906 0 24-10.746094 24-24v-72c.003906-3.335938-2.0625-6.320312-5.183594-7.496094zm-418.175781 87.496094h-32.640625c-4.417969 0-8-3.582031-8-8v-8h45.480469c-2.414063 5.058594-4.042969 10.453125-4.839844 16zm55.359375 24c-8.835938 0-16-7.164062-16-16s7.164062-16 16-16 16 7.164062 16 16-7.164062 16-16 16zm30.863281-24c-3.589843-14.113281-16.300781-23.992188-30.863281-23.992188s-27.273438 9.878907-30.863281 23.992188h-8.335938c3.785157-18.644531 20.175781-32.039062 39.199219-32.039062s35.414062 13.394531 39.199219 32.039062zm113.136719 0h-88.640625c-.796875-5.546875-2.425781-10.941406-4.839844-16h93.480469zm0-32h-104c-.242188.035156-.484375.082031-.71875.144531-21.765625-21.527343-56.796875-21.527343-78.5625 0-.234375-.0625-.476562-.109375-.71875-.144531h-56v-24h240zm0-40h-240v-16h240zm-208-32v-24h16v24zm32 0v-24h16v24zm32 0v-24h16v24zm32 0v-24h16v24zm32 0v-24h16v24zm32 0v-24h16v24zm112 128h-48v-16h48zm-48-32v-104h16v104zm48 0h-16v-104h16zm0-120h-48v-16h48zm24.640625 128h-8.640625v-16h13.480469c-2.414063 5.058594-4.042969 10.453125-4.839844 16zm55.359375 24c-8.835938 0-16-7.164062-16-16s7.164062-16 16-16 16 7.164062 16 16-7.164062 16-16 16zm30.863281-24c-3.589843-14.113281-16.300781-23.992188-30.863281-23.992188s-27.273438 9.878907-30.863281 23.992188h-8.335938c3.785157-18.644531 20.175781-32.039062 39.199219-32.039062s35.414062 13.394531 39.199219 32.039062zm33.136719-8c0 4.417969-3.582031 8-8 8h-.640625c-.796875-5.546875-2.425781-10.941406-4.839844-16h13.480469zm0-24h-24c-.242188.035156-.484375.082031-.71875.144531-21.765625-21.527343-56.796875-21.527343-78.5625 0-.234375-.0625-.476562-.109375-.71875-.144531h-24v-120c0-4.417969-3.582031-8-8-8h-64c-4.417969 0-8 3.582031-8 8v48h-16v-32c0-4.417969-3.582031-8-8-8h-192c-4.417969 0-8 3.582031-8 8v32h-16v-56c0-8.835938 7.164062-16 16-16h352c8.835938 0 16 7.164062 16 16h-40c-4.417969 0-8 3.582031-8 8v48c0 4.417969 3.582031 8 8 8h46.542969l25.457031 9.542969v14.457031c0 13.253906 10.746094 24 24 24h8zm-64-112v32h-32v-32zm64 80h-8c-4.417969 0-8-3.582031-8-8v-8.457031l16 6zm0 0"/></svg>