<svg height="464pt" viewBox="0 -120 464 464" width="464pt" xmlns="http://www.w3.org/2000/svg"><path d="m432 56c-4.417969 0-8-3.582031-8-8v-8h-32c-4.417969 0-8-3.582031-8-8s3.582031-8 8-8h40c4.417969 0 8 3.582031 8 8v16c0 4.417969-3.582031 8-8 8zm0 0" fill="#cdcdcd"/><path d="m448 192h-432c-8.835938 0-16-7.164062-16-16v-152c0-13.253906 10.746094-24 24-24h352c13.253906 0 24 10.746094 24 24v56l64 24v72c0 8.835938-7.164062 16-16 16zm0 0" fill="#f3af3e"/><path d="m288 56h32v152h-32zm0 0" fill="#d18d28"/><path d="m352 32h48v48h-48zm0 0" fill="#e4e4e2"/><path d="m352 40h40v40h-40zm0 0" fill="#ebebeb"/><path d="m256 128c4.417969 0 8-3.582031 8-8s-3.582031-8-8-8h-256v16zm0 0" fill="#d18d28"/><path d="m256 96c4.417969 0 8-3.582031 8-8s-3.582031-8-8-8h-256v16zm0 0" fill="#d18d28"/><path d="m432 92v20c0 8.835938 7.164062 16 16 16h16v-24zm0 0" fill="#fd9226"/><path d="m424 160h40v16c0 8.835938-7.164062 16-16 16h-128v-32h32" fill="#cdcdcd"/><path d="m0 160h256v32h-240c-8.835938 0-16-7.164062-16-16zm0 0" fill="#cdcdcd"/><path d="m344 192c0-26.507812 21.492188-48 48-48s48 21.492188 48 48zm0 0" fill="#cd9434"/><path d="m104 144c26.507812 0 48 21.492188 48 48h-96c0-26.507812 21.492188-48 48-48" fill="#cd9434"/><path d="m256 56h32v152h-32zm0 0" fill="#ea9d2d"/><path d="m256 32h64v32h-64zm0 0" fill="#cdcdcd"/><path d="m256 184h64v40h-64zm0 0" fill="#cdcdcd"/><path d="m256 176h64v16h-64zm0 0" fill="#b9b9b9"/><path d="m32 48h192v32h-192zm0 0" fill="#e4e4e2"/><g fill="#cbcbcb"><path d="m32 48h32v32h-32zm0 0"/><path d="m96 48h32v32h-32zm0 0"/><path d="m160 48h32v32h-32zm0 0"/></g><path d="m416 192c0 13.253906-10.746094 24-24 24s-24-10.746094-24-24 10.746094-24 24-24 24 10.746094 24 24zm0 0" fill="#ebebeb"/><path d="m128 192c0 13.253906-10.746094 24-24 24s-24-10.746094-24-24 10.746094-24 24-24 24 10.746094 24 24zm0 0" fill="#ebebeb"/><path d="m392 224c-17.671875 0-32-14.328125-32-32s14.328125-32 32-32 32 14.328125 32 32-14.328125 32-32 32zm0-48c-8.835938 0-16 7.164062-16 16s7.164062 16 16 16 16-7.164062 16-16-7.164062-16-16-16zm0 0" fill="#a8a8a8"/><path d="m104 224c-17.671875 0-32-14.328125-32-32s14.328125-32 32-32 32 14.328125 32 32-14.328125 32-32 32zm0-48c-8.835938 0-16 7.164062-16 16s7.164062 16 16 16 16-7.164062 16-16-7.164062-16-16-16zm0 0" fill="#a8a8a8"/></svg>