<svg height="512pt" viewBox="0 -76 512 512" width="512pt" xmlns="http://www.w3.org/2000/svg"><path d="m300 90h62v60h-62zm0 0"/><path d="m458.710938 24.871094c-7.679688-15.335938-23.101563-24.871094-40.257813-24.871094h-373.453125c-24.8125 0-45 20.1875-45 45v15h476.273438zm0 0"/><path d="m510.417969 128.289062-19.144531-38.289062h-99.273438v68.789062l21.210938 21.210938h98.789062v-45c0-2.328125-.542969-4.628906-1.582031-6.710938zm0 0"/><path d="m0 90h90v60h-90zm0 0"/><path d="m210 90h60v60h-60zm0 0"/><path d="m120 90h60v60h-60zm0 0"/><path d="m105 300c-16.539062 0-30 13.460938-30 30s13.460938 30 30 30 30-13.460938 30-30-13.460938-30-30-30zm0 0"/><path d="m165 300c-16.539062 0-30 13.460938-30 30s13.460938 30 30 30 30-13.460938 30-30-13.460938-30-30-30zm0 0"/><path d="m396.394531 205.605469-25.605469-25.605469h-370.789062v30h315c8.289062 0 15 6.710938 15 15s-6.710938 15-15 15h-315v45c0 24.8125 20.1875 45 45 45 0-33.089844 26.910156-60 60-60 10.976562 0 21.140625 3.175781 30 8.34375 8.859375-5.167969 19.023438-8.34375 30-8.34375 33.089844 0 60 26.910156 60 60h122c0-33.089844 26.910156-60 60-60s60 26.910156 60 60c24.8125 0 45-20.1875 45-45v-15h-45c-8.289062 0-15-6.710938-15-15s6.710938-15 15-15h45v-30h-105c-3.984375 0-7.792969-1.582031-10.605469-4.394531zm0 0"/><path d="m407 300c-16.539062 0-30 13.460938-30 30s13.460938 30 30 30 30-13.460938 30-30-13.460938-30-30-30zm0 0"/></svg>