<svg height="512pt" viewBox="-92 0 511 512" width="512pt" xmlns="http://www.w3.org/2000/svg"><path d="m285.40625 7.605469h-241.929688c-19.535156 0-35.375 15.835937-35.375 35.375v426.039062c0 19.539063 15.839844 35.375 35.375 35.375h241.929688c19.539062 0 35.375-15.835937 35.375-35.375v-426.039062c0-19.539063-15.835938-35.375-35.375-35.375zm0 0" fill="#4c5275"/><path d="m8.105469 64.203125h312.671875v385.609375h-312.671875zm0 0" fill="#45c1ed"/><path d="m197.898438 43.613281h-66.914063c-4.199219 0-7.601563-3.40625-7.601563-7.605469 0-4.199218 3.402344-7.601562 7.601563-7.601562h66.914063c4.199218 0 7.601562 3.402344 7.601562 7.601562 0 4.199219-3.402344 7.605469-7.601562 7.605469zm0 0" fill="#393f5b"/><path d="m118.460938 375.832031h-30.847657c-6.359375 0-11.515625-5.15625-11.515625-11.515625v-33.90625h53.878906v33.90625c0 6.359375-5.15625 11.515625-11.515624 11.515625zm0 0" fill="#4c5275"/><path d="m241.269531 375.832031h-30.84375c-6.363281 0-11.519531-5.15625-11.519531-11.515625v-33.90625h53.882812v33.90625c0 6.359375-5.15625 11.515625-11.519531 11.515625zm0 0" fill="#4c5275"/><path d="m90.65625 354.546875v9.765625c0 6.363281 5.15625 11.519531 11.519531 11.519531h-14.5625c-6.355469 0-11.515625-5.15625-11.515625-11.519531v-33.902344h53.882813v24.136719zm0 0" fill="#393f5b"/><path d="m213.46875 354.546875v9.765625c0 6.363281 5.152344 11.519531 11.515625 11.519531h-14.558594c-6.359375 0-11.519531-5.15625-11.519531-11.519531v-33.902344h53.882812v24.136719zm0 0" fill="#393f5b"/><path d="m71.253906 254.066406h-11.734375c-6.996093 0-12.667969-5.671875-12.667969-12.667968v-32.964844c0-6.996094 5.671876-12.667969 12.667969-12.667969h209.84375c6.996094 0 12.667969 5.671875 12.667969 12.667969v32.964844c0 6.996093-5.671875 12.667968-12.667969 12.667968h-11.738281" fill="#4c5275"/><path d="m257.628906 173.136719v169.554687h-186.371094v-169.554687c0-19.304688 15.644532-34.949219 34.953126-34.949219h116.464843c19.304688-.003906 34.953125 15.644531 34.953125 34.949219zm0 0" fill="#ff5543"/><path d="m119.429688 301.792969c0 7.558593-6.132813 13.691406-13.691407 13.691406-7.5625 0-13.691406-6.132813-13.691406-13.691406 0-7.5625 6.128906-13.691407 13.691406-13.691407 7.558594 0 13.691407 6.128907 13.691407 13.691407zm0 0" fill="#ffdb45"/><path d="m236.835938 301.792969c0 7.558593-6.128907 13.691406-13.691407 13.691406-7.558593 0-13.691406-6.132813-13.691406-13.691406 0-7.5625 6.132813-13.691407 13.691406-13.691407 7.5625 0 13.691407 6.128907 13.691407 13.691407zm0 0" fill="#ffdb45"/><path d="m231.121094 182.1875v63.410156c0 10.328125-8.386719 18.714844-18.71875 18.714844h-95.917969c-10.34375 0-18.71875-8.382812-18.71875-18.714844v-63.410156c0-10.339844 8.375-18.722656 18.71875-18.722656h95.917969c10.332031 0 18.71875 8.382812 18.71875 18.722656zm0 0" fill="#c5f3ff"/><path d="m231.121094 182.1875v7.171875h-133.355469v-7.171875c0-10.339844 8.375-18.722656 18.71875-18.722656h95.921875c10.328125 0 18.714844 8.382812 18.714844 18.722656zm0 0" fill="#ffdb45"/><path d="m285.40625 512h-241.925781c-23.699219 0-42.980469-19.28125-42.980469-42.980469v-426.039062c0-23.699219 19.28125-42.980469 42.980469-42.980469h241.925781c23.699219 0 42.980469 19.28125 42.980469 42.980469v426.039062c0 23.699219-19.28125 42.980469-42.980469 42.980469zm-241.925781-496.792969c-15.316407 0-27.773438 12.457031-27.773438 27.773438v426.039062c0 15.316407 12.457031 27.773438 27.773438 27.773438h241.925781c15.3125 0 27.769531-12.457031 27.769531-27.773438v-426.039062c0-15.316407-12.457031-27.773438-27.769531-27.773438zm0 0" fill="#4c5275"/><path d="m250.902344 325.765625h-172.921875c-5.769531 0-10.449219 4.679687-10.449219 10.453125s4.679688 10.453125 10.449219 10.453125h172.921875c5.769531 0 10.449218-4.679687 10.449218-10.453125s-4.679687-10.453125-10.449218-10.453125zm0 0" fill="#fff"/></svg>