<svg height="480pt" viewBox="-84 0 480 480.00001" width="480pt" xmlns="http://www.w3.org/2000/svg"><path d="m51.84375 136-30.609375-20.40625c-10.429687-6.949219-15.363281-19.707031-12.320313-31.867188 1.878907-7.527343 6.632813-14.023437 13.242188-18.085937l70.269531-43.242187c15.3125-9.417969 32.9375-14.402344 50.914063-14.398438h25.007812c17.980469-.003906 35.605469 4.980469 50.917969 14.398438l70.289063 43.25c6.597656 4.0625 11.347656 10.546874 13.226562 18.0625 3.035156 12.160156-1.894531 24.914062-12.320312 31.863281l-30.617188 20.425781zm0 0" fill="#1d3f54"/><path d="m75.546875 312h160.601563c30.761718 0 55.703124 24.941406 55.703124 55.703125v104.296875h-272v-104.320312c.011719-30.75 24.945313-55.675782 55.695313-55.679688zm0 0" fill="#ccdaec"/><path d="m51.84375 112h208v72c0 57.4375-46.5625 104-104 104s-104-46.5625-104-104zm0 0" fill="#e8d8bf"/><path d="m123.84375 274.960938h64v77.015624h-64zm0 0" fill="#e8d8bf"/><path d="m75.546875 312c-6.367187.015625-12.6875 1.125-18.679687 3.28125l98.976562 156.71875h56l-104-160zm0 0" fill="#1d3f54"/><path d="m47.164062 437.238281-11.316406-11.3125 33.941406-33.941406 11.3125 11.3125c9.375 9.375 9.375 24.570313 0 33.941406-9.371093 9.375-24.566406 9.375-33.9375 0zm0 0" fill="#e8d8bf"/><path d="m275.84375 424h16v48h-16c-13.253906 0-24-10.746094-24-24s10.746094-24 24-24zm0 0" fill="#e8d8bf"/><path d="m219.84375 472c-15.109375-20.144531-38.820312-32-64-32s-48.890625 11.855469-64 32h-37.214844c18.550782-39.089844 57.949219-64.003906 101.21875-64.003906 43.269532 0 82.667969 24.914062 101.21875 64.003906zm0 0" fill="#6c3b15"/><g fill="#4d8ebe"><path d="m59.84375 112h192c0 17.671875-14.328125 32-32 32h-128c-17.671875 0-32-14.328125-32-32zm0 0"/><path d="m155.84375 351.976562-48 24-8-64h24zm0 0"/><path d="m155.84375 351.976562 48 24 8-64h-24zm0 0"/></g><path d="m267.820312 184v-43.742188l27.046876-18.035156c10.679687-7.113281 17-19.179687 16.769531-32.011718-.234375-12.828126-6.988281-24.65625-17.921875-31.378907l-70.289063-43.257812c-16.570312-10.191407-35.648437-15.5820315-55.101562-15.574219h-25.007813c-19.457031 0-38.535156 5.398438-55.105468 15.601562l-70.296876 43.230469c-10.925781 6.726563-17.675781 18.554688-17.9062495 31.382813-.2343745 12.828125 6.0859375 24.894531 16.7617185 32.007812l27.050781 18.035156v43.742188c.078126 46.371094 28.695313 87.902344 72 104.488281v15.511719h-40.296874c-35.167969.039062-63.664063 28.539062-63.703126 63.703125v104.296875c0 4.417969 3.582032 8 8 8h272c4.417969 0 8-3.582031 8-8v-104.320312c-.054687-35.15625-28.546874-63.640626-63.703124-63.679688h-40.296876v-15.535156c43.292969-16.582032 71.914063-58.105469 72-104.464844zm-224-72v9.054688l-18.175781-12.117188c-6.144531-4.09375-9.777343-11.03125-9.644531-18.410156s4.015625-14.179688 10.300781-18.046875l70.292969-43.28125c14.054688-8.640625 30.226562-13.207031 46.722656-13.199219h25.007813c16.496093 0 32.667969 4.578125 46.71875 13.222656l70.3125 43.234375c6.28125 3.867188 10.164062 10.667969 10.296875 18.046875.136718 7.375-3.496094 14.3125-9.632813 18.40625l-18.175781 12.121094v-9.03125c0-4.417969-3.582031-8-8-8h-208c-2.125-.007812-4.167969.832031-5.671875 2.335938-1.507813 1.5-2.351563 3.539062-2.351563 5.664062zm198.527344 8c-3.378906 9.554688-12.394531 15.957031-22.527344 16h-128c-10.136718-.042969-19.152343-6.445312-22.527343-16zm-122.398437 200 23.40625 29.273438-29.03125 14.519531-5.441407-43.792969zm11.839843-10.800781v-15.878907c15.800782 3.542969 32.195313 3.542969 48 0v15.855469l-24 30zm23.695313 90.800781c-11.066406.035156-22.070313 1.617188-32.695313 4.695312l-13.328124-21.09375c.660156-.070312 1.3125-.226562 1.933593-.457031l25.007813-12.503906zm-80-80h17.230469l5.792968 46.335938-29-45.921876c1.996094-.265624 4.003907-.402343 6.015626-.414062zm-47.664063 47.679688c.011719-17.867188 10.007813-34.230469 25.894532-42.398438l53.6875 85c-4.144532 1.851562-8.179688 3.9375-12.09375 6.238281-.691406-7.285156-3.882813-14.105469-9.03125-19.304687l-11.320313-11.285156c-3.125-3.125-8.191406-3.125-11.3125 0l-33.945312 33.941406c-.890625.945312-1.539063 2.09375-1.878907 3.34375zm21.925782 96.320312h-21.925782v-36.160156c.339844 1.253906.988282 2.402344 1.878907 3.34375l11.320312 11.3125c4.488281 4.527344 10.242188 7.59375 16.503907 8.800781-2.851563 4.070313-5.449219 8.3125-7.777344 12.703125zm2.585937-32.800781-5.65625-5.65625 22.625-22.632813 5.664063 5.65625c6.25 6.25 6.25 16.382813 0 22.632813-6.332032 6.046875-16.300782 6.046875-22.632813 0zm58.246094 32.800781c6.800781-5.507812 14.5625-9.714844 22.890625-12.398438l7.832031 12.398438zm49.648437 0-9.902343-15.679688c1.824219-.136718 3.640625-.320312 5.496093-.320312 13.382813-.019531 26.5 3.714844 37.863282 10.785156l3.390625 5.214844zm63.296876 0c-16.644532-20.257812-41.484376-32-67.703126-32s-51.0625 11.742188-67.703124 32h-19.882813c19.085937-29.917969 52.117187-48.027344 87.601563-48.027344 35.484374 0 68.515624 18.109375 87.597656 48.027344zm60.296874 0h-8c-8.835937 0-16-7.164062-16-16s7.164063-16 16-16h8zm-76.226562-80.96875c2.289062-1.226562 3.839844-3.488281 4.160156-6.0625l7.128906-56.96875h17.234376c26.332031.03125 47.671874 21.371094 47.703124 47.703125v48.296875h-8c-14.472656.058594-27.105468 9.824219-30.808593 23.816406-18.1875-20.09375-42.597657-33.496094-69.3125-38.0625l-24.894531-38.296875 5.015624-2.511719 44.421876 22.214844c2.324218 1.160156 5.066406 1.121094 7.351562-.105468zm-4.839844-63.03125-5.46875 43.792969-29.035156-14.519531 23.410156-29.273438zm-46.933594-40c-52.996093-.058594-95.945312-43.003906-96-96v-48.273438c7.484376 10.183594 19.359376 16.214844 32 16.25h128c12.640626-.035156 24.511719-6.066406 32-16.25v48.273438c-.058593 52.996094-43.003906 95.941406-96 96zm0 0"/></svg>