<svg height="512pt" viewBox="-38 0 511 512" width="512pt" xmlns="http://www.w3.org/2000/svg"><path d="m173 278.929688v101.570312h30v-45.574219c4.691406 1.660157 9.738281 2.574219 15 2.574219s10.304688-.914062 15-2.574219l15-55.996093zm0 0" fill="#7dd9ff"/><path d="m233 278.929688v101.570312h30c0-8.285156 0-7.285156 0-101.570312zm0 0" fill="#49c9ff"/><path d="m258 172.5h-30l20 130h30v-110c0-11.050781-8.949219-20-20-20zm0 0" fill="#ff4128"/><path d="m248 192.5v110h-90v-110c0-11.050781 8.949219-20 20-20h50c11.050781 0 20 8.949219 20 20zm0 0" fill="#ff6337"/><path d="m83 57.5-22.5 52.5 52.5-22.5v-30zm0 0" fill="#999"/><path d="m83 57.5v52.5l-75-22.5v-30zm0 0" fill="#ccc"/><path d="m60.5 132.5h52.5v-45h-52.5l-22.5 22.5zm0 0" fill="#353535"/><path d="m8 87.5h52.5v45h-52.5zm0 0" fill="#4f4f4f"/><path d="m60.5 87.5c-12.425781 0-22.5 10.074219-22.5 22.5s10.074219 22.5 22.5 22.5l7.5-22.5zm0 0" fill="#fff"/><path d="m60.5 87.5v45c12.425781 0 22.5-10.074219 22.5-22.5s-10.074219-22.5-22.5-22.5zm0 0" fill="#7dd9ff"/><path d="m413 302.5h-30v192h30c8.25 0 15-6.75 15-15v-162c0-8.25-6.75-15-15-15zm0 0" fill="#116f97"/><path d="m383 302.5h-60c-8.25 0-15 6.75-15 15v162c0 8.25 6.75 15 15 15h60c8.25 0 15-6.75 15-15v-19.574219l-30-48.710937 30-48.714844v-45c0-8.25-6.75-15-15-15zm0 0" fill="#1990c2"/><path d="m398 392.5-45 32.425781 15-62.425781h30zm0 0" fill="#084f6d"/><path d="m368 424.925781-30-32.425781v-30h30zm0 0" fill="#116f97"/><path d="m368 392.5-15 33.714844 15 33.710937h30v-67.425781zm0 0" fill="#2dade3"/><path d="m338 392.5h30v67.425781h-30zm0 0" fill="#49c9ff"/><path d="m218 7.5-45 90h90v-45c0-24.851562-20.148438-45-45-45zm0 0" fill="#084f6d"/><path d="m173 52.5v45h45v-90c-24.855469 0-45 20.148438-45 45zm0 0" fill="#116f97"/><path d="m232.089844 82.046875-14.089844 60.453125c24.851562 0 45-20.148438 45-45zm0 0" fill="#ffb4a9"/><path d="m233 97.5c0-5.429688-.320312-10.632812-.910156-15.453125l-41.09375-20.546875c-10.929688 8.210938-17.996094 21.277344-17.996094 36 0 24.851562 20.144531 45 45 45 8.28125 0 15-20.148438 15-45zm0 0" fill="#ffd9d0"/><path d="m218 52.5 14.898438 39.832031c9.414062 3.339844 19.542968 5.167969 30.101562 5.167969 0-24.851562-20.148438-45-45-45zm0 0" fill="#c27749"/><path d="m218 52.5c-10.132812 0-19.480469 3.351562-27.003906 9 10.53125 14.023438 25.066406 24.859375 41.902344 30.832031-.855469-22.417969-7.199219-39.832031-14.898438-39.832031zm0 0" fill="#e18f4e"/><path d="m280.371094 497.382812-24.871094-8.289062v-101.09375h7.5c4.140625 0 7.5-3.359375 7.5-7.5v-70.5h7.5c4.140625 0 7.5-3.359375 7.5-7.5v-102.785156c50.269531-3.84375 90-45.976563 90-97.214844 0-4.140625-3.359375-7.5-7.5-7.5-4.144531 0-7.5 3.359375-7.5 7.5 0 43.34375-33.605469 78.960938-76.125 82.226562-3.363281-11.386718-13.910156-19.726562-26.375-19.726562h-80c-12.5625 0-23.179688 8.472656-26.453125 20h-61.046875c-4.136719 0-7.5-3.363281-7.5-7.5s3.363281-7.5 7.5-7.5h22.5c4.140625 0 7.5-3.359375 7.5-7.5 0-4.144531-3.359375-7.5-7.5-7.5h-22.5c-12.40625 0-22.5 10.09375-22.5 22.5s10.09375 22.5 22.5 22.5h60v102.5c0 4.140625 3.355469 7.5 7.5 7.5h7.5v70.5c0 4.140625 3.355469 7.5 7.5 7.5h7.5v101.09375l-24.871094 8.289062c-3.929687 1.308594-6.054687 5.558594-4.746094 9.488282 1.046876 3.140625 3.972657 5.128906 7.113282 5.128906.789062 0 1.585937-.125 2.375-.386719l30-10c3.0625-1.019531 5.128906-3.886719 5.128906-7.113281v-106.5h7.5c4.140625 0 7.5-3.359375 7.5-7.5v-36.039062c4.949219.714843 10.046875.714843 15 0v36.039062c0 4.140625 3.355469 7.5 7.5 7.5h7.5v106.5c0 3.226562 2.0625 6.09375 5.125 7.113281l30 10c.789062.261719 1.585938.386719 2.375.386719 3.140625 0 6.066406-1.988281 7.113281-5.128906 1.3125-3.929688-.8125-8.179688-4.742187-9.488282zm-102.371094-317.382812h80c6.890625 0 12.5 5.605469 12.5 12.5v102.5h-105v-102.5c0-6.894531 5.605469-12.5 12.5-12.5zm59.328125 148.804688c-1.988281-1.40625-4.535156-1.757813-6.828125-.949219-8.039062 2.84375-16.960938 2.84375-25 0-2.296875-.8125-4.84375-.457031-6.832031.949219s-3.167969 3.6875-3.167969 6.125v38.070312h-15v-63h75v63h-15v-38.074219c0-2.433593-1.183594-4.714843-3.171875-6.121093zm0 0"/><path d="m120.5 132.5v-75c0-4.140625-3.359375-7.5-7.5-7.5h-105c-4.140625 0-7.5 3.359375-7.5 7.5v75c0 4.140625 3.359375 7.5 7.5 7.5h105c4.140625 0 7.5-3.359375 7.5-7.5zm-15-52.5h-15v-15h15zm-60 30c0-8.269531 6.730469-15 15-15s15 6.730469 15 15-6.730469 15-15 15-15-6.730469-15-15zm30-45v15h-60v-15zm-60 30h19.035156c-2.558594 4.414062-4.035156 9.539062-4.035156 15s1.476562 10.582031 4.035156 15h-19.035156zm70.964844 30c2.558594-4.417969 4.035156-9.539062 4.035156-15s-1.476562-10.585938-4.035156-15h19.035156v30zm0 0"/><path d="m413 295h-7.5v-62.5c0-4.144531-3.359375-7.5-7.5-7.5h-60c-4.144531 0-7.5 3.355469-7.5 7.5v62.5h-7.5c-12.410156 0-22.5 10.09375-22.5 22.5v162c0 9.777344 6.269531 18.113281 15 21.207031v3.789063c0 4.144531 3.355469 7.5 7.5 7.5 4.140625 0 7.5-3.355469 7.5-7.5v-2.5h75v2.5c0 4.144531 3.355469 7.5 7.5 7.5 4.140625 0 7.5-3.355469 7.5-7.5v-3.789063c8.726562-3.09375 15-11.429687 15-21.207031v-162c0-12.40625-10.09375-22.5-22.5-22.5zm-67.5-55h45v55h-45zm75 239.5c0 4.132812-3.367188 7.5-7.5 7.5h-90c-4.136719 0-7.5-3.367188-7.5-7.5v-162c0-4.136719 3.363281-7.5 7.5-7.5h90c4.132812 0 7.5 3.363281 7.5 7.5zm0 0"/><path d="m398 355h-60c-4.144531 0-7.5 3.355469-7.5 7.5v97.425781c0 4.144531 3.355469 7.5 7.5 7.5h60c4.140625 0 7.5-3.355469 7.5-7.5v-97.425781c0-4.144531-3.359375-7.5-7.5-7.5zm-7.5 15v15h-45v-15zm-45 82.425781v-52.425781h45v52.425781zm0 0"/><path d="m218 150c28.949219 0 52.5-23.550781 52.5-52.5v-45c0-28.949219-23.550781-52.5-52.5-52.5s-52.5 23.550781-52.5 52.5v45c0 28.949219 23.550781 52.5 52.5 52.5zm-37.5-97.5c0-20.679688 16.820312-37.5 37.5-37.5 20.675781 0 37.5 16.820312 37.5 37.5v8.308594c-9.539062-9.746094-22.820312-15.808594-37.5-15.808594s-27.964844 6.0625-37.5 15.808594zm74.148438 37.078125c-20.152344-2-38.578126-11.210937-52.296876-26.144531 4.765626-2.199219 10.066407-3.433594 15.648438-3.433594 17.960938 0 33.003906 12.695312 36.648438 29.578125zm-64.449219-17.21875c16.691406 18.804687 39.574219 30.246094 64.605469 32.300781-3.351563 17.261719-18.578126 30.339844-36.804688 30.339844-20.679688 0-37.5-16.824219-37.5-37.5 0-9.664062 3.675781-18.484375 9.699219-25.140625zm0 0"/></svg>