<?xml version="1.0" encoding="iso-8859-1"?>
<!-- Generator: Adobe Illustrator 19.0.0, SVG Export Plug-In . SVG Version: 6.00 Build 0)  -->
<svg version="1.1" id="Layer_1" xmlns="http://www.w3.org/2000/svg" xmlns:xlink="http://www.w3.org/1999/xlink" x="0px" y="0px"
	 viewBox="0 0 512 512" style="enable-background:new 0 0 512 512;" xml:space="preserve">
<path style="fill:#FFC07D;" d="M322.993,389.897h121.804c0.027-0.539,0.079-1.068,0.079-1.614v-74.118
	c0-16.374-13.27-29.648-29.646-29.648h-66.155h-26.081H63.614c0,0-3.866,24.171,33.836,40.603
	c33.019,14.395,187.629,33.235,225.543,37.696V389.897z"/>
<path style="fill:#DD995B;" d="M332.997,338.534c-0.17-0.021-0.336-0.041-0.508-0.062c-0.003,0-0.015-0.001-0.015-0.001h0.001
	c-53.587-6.521-182.239-19.399-211.664-29.743c-13.151-4.622-30.673-10.431-30.673-24.212H63.614c0,0-3.866,24.171,33.836,40.603
	c33.019,14.395,187.629,33.235,225.543,37.696v27.08h25.145v-31.233C348.138,341.653,335.699,338.926,332.997,338.534z"/>
<polyline style="fill:#E0E1E2;" points="342.161,431.465 303.372,431.465 303.372,389.897 477.39,389.897 477.39,431.465 
	367.485,431.465 "/>
<path style="fill:#49516D;" d="M311.107,431.465h-14.502c-9.613,0-17.402,7.793-17.402,17.402v36.739
	c0,9.609,7.788,17.402,17.402,17.402h14.502h158.549h14.502c9.612,0,17.402-7.793,17.402-17.402v-36.739
	c0-9.609-7.791-17.402-17.402-17.402h-6.767"/>
<rect x="303.375" y="389.894" style="fill:#A1B2BF;" width="25.235" height="41.569"/>
<path style="fill:#323B56;" d="M304.438,485.607v-36.739c0-9.609,7.787-17.402,17.402-17.402h-10.733h-14.502
	c-9.613,0-17.402,7.793-17.402,17.402v36.739c0,9.609,7.788,17.402,17.402,17.402h14.502h10.733
	C312.226,503.008,304.438,495.215,304.438,485.607z"/>
<path style="fill:#776959;" d="M503.975,267.115c0,9.613-7.791,17.402-17.402,17.402H25.427c-9.61,0-17.402-7.788-17.402-17.402l0,0
	c0-9.609,7.793-17.402,17.402-17.402h461.145C496.184,249.713,503.975,257.505,503.975,267.115L503.975,267.115z"/>
<path style="fill:#937F6C;" d="M486.573,249.713H314.44c22.343,15.14,47.109,26.965,73.588,34.804h98.545
	c9.611,0,17.402-7.788,17.402-17.402C503.975,257.505,496.184,249.713,486.573,249.713z"/>
<path style="fill:#4F4033;" d="M33.249,267.115c0-9.609,7.793-17.402,17.402-17.402H25.427c-9.61,0-17.402,7.793-17.402,17.402
	c0,9.613,7.793,17.402,17.402,17.402h25.224C41.042,284.516,33.249,276.728,33.249,267.115z"/>
<path style="fill:#776959;" d="M285.002,37.992c0-16.017-12.984-29.002-29.002-29.002s-29.002,12.987-29.002,29.002
	c0,16.021,12.984,29.003,29.002,29.003S285.002,54.012,285.002,37.992z"/>
<path style="fill:#4F4033;" d="M252.062,37.992c0-11.527,6.727-21.485,16.47-26.161C264.74,10.011,260.489,8.99,256,8.99
	c-16.019,0-29.002,12.986-29.002,29.002c0,16.021,12.984,29.003,29.002,29.003c4.489,0,8.74-1.021,12.533-2.841
	C258.789,59.479,252.062,49.522,252.062,37.992z"/>
<path style="fill:#D8722E;" d="M48.158,249.713h415.686C450.671,146.655,362.64,66.994,256,66.994S61.328,146.654,48.158,249.713z"
	/>
<path style="fill:#E58741;" d="M256,66.994c-19.012,0-37.428,2.544-54.94,7.29c12.516,72.833,54.559,135.569,113.38,175.428h149.404
	C450.671,146.654,362.64,66.994,256,66.994z"/>
<path style="fill:#BF5C25;" d="M269.143,67.414c-4.348-0.27-8.727-0.419-13.143-0.419c-106.64,0-194.672,79.66-207.842,182.718
	h28.425C89.208,150.922,168.489,73.644,269.143,67.414z"/>
<path style="fill:#231F20;" d="M485.415,423.472v-33.575c0-4.433-3.592-8.025-8.025-8.025h-24.489v-67.706
	c0-8.042-2.541-15.498-6.851-21.623h40.523c14.021,0,25.427-11.406,25.427-25.427c0-14.021-11.406-25.427-25.427-25.427h-15.794
	c-15.301-95.026-91.813-168.118-185.738-180.766c4.995-6.312,7.987-14.276,7.987-22.93c0-20.417-16.611-37.027-37.027-37.027
	s-37.028,16.611-37.028,37.027c0,8.655,2.993,16.619,7.988,22.93c-93.926,12.647-170.438,85.74-185.737,180.766H25.427
	C11.406,241.688,0,253.094,0,267.115c0,14.02,11.406,25.427,25.427,25.427h30.662c1.929,10.442,9.671,27.52,38.155,39.934
	c31.937,13.923,168.927,31.279,220.724,37.47v11.926h-11.597c-4.432,0-8.025,3.592-8.025,8.025v33.575
	c-13.438,0.658-24.169,11.797-24.169,25.395v36.739c0,14.021,11.406,25.427,25.427,25.427h187.552
	c14.021,0,25.427-11.406,25.427-25.427v-36.739C509.584,435.269,498.853,424.13,485.415,423.472z M235.022,37.992
	c0-11.567,9.411-20.977,20.978-20.977c11.568,0,20.977,9.411,20.977,20.977c0,11.568-9.411,20.978-20.977,20.978
	C244.433,58.971,235.022,49.559,235.022,37.992z M256,75.019c98.081,0,181.854,71.03,198.519,166.668H57.483
	C74.146,146.05,157.918,75.019,256,75.019z M16.05,267.115c0-5.17,4.207-9.377,9.377-9.377h22.731h415.686h22.729
	c5.17,0,9.377,4.207,9.377,9.377c0,5.17-4.207,9.377-9.377,9.377H415.23H63.614H25.427C20.257,276.491,16.05,272.285,16.05,267.115z
	 M323.932,354.847c-91.522-10.771-198.239-26.169-223.275-37.083c-19.345-8.433-25.907-18.607-28.086-25.222h342.66
	c11.923,0,21.621,9.699,21.621,21.623v67.706H331.018v-19.055C331.018,358.747,327.973,355.322,323.932,354.847z M493.534,485.607
	c0,5.17-4.207,9.377-9.377,9.377H296.605c-5.17,0-9.377-4.207-9.377-9.377v-36.739c0-5.17,4.207-9.377,9.377-9.377h6.767h7.735
	h31.054c4.433,0,8.025-3.592,8.025-8.025s-3.592-8.025-8.025-8.025h-30.764v-25.519h11.597h121.804h24.568v25.519h-101.88
	c-4.433,0-8.025,3.592-8.025,8.025s3.592,8.025,8.025,8.025H477.39h6.767c5.17,0,9.377,4.207,9.377,9.377L493.534,485.607
	L493.534,485.607z"/>
<g>
</g>
<g>
</g>
<g>
</g>
<g>
</g>
<g>
</g>
<g>
</g>
<g>
</g>
<g>
</g>
<g>
</g>
<g>
</g>
<g>
</g>
<g>
</g>
<g>
</g>
<g>
</g>
<g>
</g>
</svg>
