<svg height="512pt" viewBox="0 0 512 512" width="512pt" xmlns="http://www.w3.org/2000/svg"><path d="m116.324219 512h-50.109375c-10.332032 0-18.707032-8.375-18.707032-18.710938v-55.082031h87.527344v55.082031c0 10.335938-8.378906 18.710938-18.710937 18.710938zm0 0" fill="#4c5275"/><path d="m315.828125 512h-50.109375c-10.332031 0-18.707031-8.375-18.707031-18.710938v-55.082031h87.527343v55.082031c0 10.335938-8.378906 18.710938-18.710937 18.710938zm0 0" fill="#4c5275"/><path d="m71.160156 477.421875v15.863281c0 10.339844 8.375 18.714844 18.710938 18.714844h-23.652344c-10.328125 0-18.710938-8.375-18.710938-18.714844v-55.074218h87.527344v39.210937zm0 0" fill="#393f5b"/><path d="m270.664062 477.421875v15.863281c0 10.339844 8.375 18.714844 18.710938 18.714844h-23.652344c-10.328125 0-18.710937-8.375-18.710937-18.714844v-55.074218h87.53125v39.210937zm0 0" fill="#393f5b"/><g fill="#4c5275"><path d="m504.21875 154.527344c-4.261719 0-7.71875-3.457032-7.71875-7.71875 0-72.441406-58.933594-131.375-131.375-131.375-4.261719 0-7.714844-3.453125-7.714844-7.714844s3.453125-7.71875 7.714844-7.71875c80.953125 0 146.8125 65.859375 146.8125 146.808594 0 4.261718-3.457031 7.71875-7.71875 7.71875zm0 0"/><path d="m468.707031 154.527344c-4.261719 0-7.714843-3.457032-7.714843-7.71875 0-52.859375-43.003907-95.863282-95.867188-95.863282-4.261719 0-7.714844-3.457031-7.714844-7.71875 0-4.261718 3.453125-7.714843 7.714844-7.714843 61.371094 0 111.300781 49.925781 111.300781 111.296875 0 4.261718-3.457031 7.71875-7.71875 7.71875zm0 0"/><path d="m433.195312 154.527344c-4.261718 0-7.714843-3.457032-7.714843-7.71875 0-33.277344-27.074219-60.351563-60.355469-60.351563-4.261719 0-7.714844-3.457031-7.714844-7.71875s3.453125-7.714843 7.714844-7.714843c41.789062 0 75.789062 33.996093 75.789062 75.785156 0 4.261718-3.457031 7.71875-7.71875 7.71875zm0 0"/><path d="m397.6875 154.527344c-4.265625 0-7.71875-3.457032-7.71875-7.71875 0-13.699219-11.144531-24.839844-24.84375-24.839844-4.261719 0-7.714844-3.457031-7.714844-7.71875s3.453125-7.71875 7.714844-7.71875c22.210938 0 40.277344 18.070312 40.277344 40.277344 0 4.261718-3.453125 7.71875-7.714844 7.71875zm0 0"/><path d="m39.644531 274.289062h-19.066406c-11.363281 0-20.578125-9.214843-20.578125-20.582031v-53.542969c0-11.363281 9.214844-20.578124 20.578125-20.578124h340.882813c11.367187 0 20.578124 9.214843 20.578124 20.578124v53.542969c0 11.367188-9.210937 20.582031-20.578124 20.582031h-19.0625"/></g><path d="m342.402344 142.820312v275.4375h-302.757813v-275.4375c0-31.363281 25.417969-56.777343 56.78125-56.777343h189.195313c31.363281 0 56.78125 25.414062 56.78125 56.777343zm0 0" fill="#e53729"/><path d="m342.402344 142.820312v275.4375h-269.460938v-275.4375c0-31.363281 25.429688-56.777343 56.78125-56.777343h155.898438c31.363281 0 56.78125 25.414062 56.78125 56.777343zm0 0" fill="#ff5543"/><path d="m313.703125 149.460938v137.738281c0 19.015625-15.425781 34.4375-34.441406 34.4375h-176.476563c-19.027344 0-34.441406-15.421875-34.441406-34.4375v-137.738281c0-19.027344 15.414062-34.441407 34.441406-34.441407h176.476563c4.003906 0 7.84375.679688 11.414062 1.933594 13.40625 4.714844 23.027344 17.484375 23.027344 32.507813zm0 0" fill="#c5f3ff"/><path d="m240.304688 115.019531-76.75 206.617188h-60.195313l76.75-206.617188zm0 0" fill="#e3faff"/><path d="m313.703125 149.460938v137.738281c0 19.015625-15.425781 34.4375-34.441406 34.4375h-64.617188l76.03125-204.683594c13.40625 4.714844 23.027344 17.484375 23.027344 32.507813zm0 0" fill="#e3faff"/><path d="m313.707031 149.460938v19.753906h-245.363281v-19.753906c0-19.027344 15.417969-34.445313 34.433594-34.445313h176.484375c19.015625 0 34.445312 15.417969 34.445312 34.445313zm0 0" fill="#45c1ed"/><path d="m369.515625 438.203125c0 11.019531-8.933594 19.957031-19.945313 19.957031h-317.089843c-5.511719 0-10.503907-2.234375-14.113281-5.84375-3.609376-3.609375-5.84375-8.601562-5.84375-14.113281 0-11.019531 8.933593-19.945313 19.957031-19.945313h317.089843c5.5 0 10.496094 2.234376 14.105469 5.84375 3.609375 3.609376 5.839844 8.59375 5.839844 14.101563zm0 0" fill="#ccc"/><path d="m369.515625 438.203125c0 11.019531-8.933594 19.957031-19.945313 19.957031h-262.4375c-5.507812 0-10.492187-2.234375-14.113281-5.84375-3.609375-3.609375-5.839843-8.601562-5.839843-14.113281 0-11.019531 8.933593-19.945313 19.957031-19.945313h262.433593c5.503907 0 10.496094 2.234376 14.105469 5.84375 3.609375 3.609376 5.839844 8.59375 5.839844 14.101563zm0 0" fill="#e6e6e6"/><path d="m117.898438 370.425781c0 12.28125-9.957032 22.238281-22.242188 22.238281-12.28125 0-22.238281-9.957031-22.238281-22.238281 0-12.285156 9.957031-22.242187 22.238281-22.242187 12.285156 0 22.242188 9.957031 22.242188 22.242187zm0 0" fill="#ffdb45"/><path d="m308.625 370.425781c0 12.28125-9.957031 22.238281-22.238281 22.238281-12.285157 0-22.242188-9.957031-22.242188-22.238281 0-12.285156 9.957031-22.242187 22.242188-22.242187 12.28125 0 22.238281 9.957031 22.238281 22.242187zm0 0" fill="#ffdb45"/></svg>