<svg height="480pt" viewBox="0 -72 480 480" width="480pt" xmlns="http://www.w3.org/2000/svg"><path d="m96 256c-13.253906 0-24 10.746094-24 24s10.746094 24 24 24 24-10.746094 24-24-10.746094-24-24-24zm0 32c-4.417969 0-8-3.582031-8-8s3.582031-8 8-8 8 3.582031 8 8-3.582031 8-8 8zm0 0"/><path d="m376 256c-13.253906 0-24 10.746094-24 24s10.746094 24 24 24 24-10.746094 24-24-10.746094-24-24-24zm0 32c-4.417969 0-8-3.582031-8-8s3.582031-8 8-8 8 3.582031 8 8-3.582031 8-8 8zm0 0"/><path d="m368 80h16v16h16v-32h-32zm0 0"/><path d="m456 128h-24v-88c-.027344-22.082031-17.917969-39.9726562-40-40h-384c-4.417969 0-8 3.582031-8 8v256c0 4.417969 3.582031 8 8 8h32.640625c-3.324219 21.789062 6.441406 43.496094 24.949219 55.464844 18.507812 11.96875 42.3125 11.96875 60.820312 0 18.507813-11.96875 28.273438-33.675782 24.949219-55.464844h169.28125c-3.324219 21.789062 6.441406 43.496094 24.949219 55.464844 18.507812 11.96875 42.3125 11.96875 60.820312 0 18.507813-11.96875 28.273438-33.675782 24.949219-55.464844h40.640625c4.417969 0 8-3.582031 8-8v-112c0-13.253906-10.746094-24-24-24zm8 64h-16v-16h16zm0-40v8h-24c-4.417969 0-8 3.582031-8 8v32c0 4.417969 3.582031 8 8 8h24v16h-112v-80h104c4.417969 0 8 3.582031 8 8zm-448 72v-16h24c4.417969 0 8-3.582031 8-8v-32c0-4.417969-3.582031-8-8-8h-24v-16h240v80zm0-176h32v80h-32zm192 0v80h-64v-80zm48 0v80h-32v-80zm80 80h-64v-80h64zm-208 0h-64v-80h64zm-112 48h16v16h-16zm256-32h64v80h-64zm80-16v-80h64v80zm-336-112h376c1.480469.011719 2.957031.160156 4.40625.449219.449219.078125.875.207031 1.3125.320312.980469.230469 1.941406.53125 2.882812.894531.453126.164063.898438.347657 1.34375.550782.929688.433594 1.832032.925781 2.703126 1.472656.328124.207031.679687.390625 1 .609375 1.140624.792969 2.210937 1.6875 3.199218 2.664063.167969.167968.3125.367187.480469.542968.796875.84375 1.535156 1.738282 2.207031 2.679688.265625.375.503906.800781.746094 1.160156.519531.828125.984375 1.6875 1.398438 2.578125.199218.429687.410156.863281.585937 1.300781.09375.257813.140625.519532.238281.800782h-398.503906zm0 240v-16h40.886719c-4.710938 4.621094-8.574219 10.039062-11.40625 16zm80 64c-22.089844 0-40-17.910156-40-40s17.910156-40 40-40 40 17.910156 40 40c-.027344 22.082031-17.917969 39.972656-40 40zm50.519531-64c-2.832031-5.960938-6.695312-11.378906-11.40625-16h201.773438c-4.710938 4.621094-8.574219 10.039062-11.40625 16zm229.480469 64c-22.089844 0-40-17.910156-40-40s17.910156-40 40-40 40 17.910156 40 40c-.027344 22.082031-17.917969 39.972656-40 40zm88-64h-37.480469c-2.832031-5.960938-6.695312-11.378906-11.40625-16h48.886719zm0 0"/></svg>