<svg height="512pt" viewBox="0 0 512 512" width="512pt" xmlns="http://www.w3.org/2000/svg"><path d="m367.308594 0c-4.199219 0-7.605469 3.402344-7.605469 7.601562 0 4.199219 3.40625 7.605469 7.605469 7.605469 71.363281 0 129.421875 58.058594 129.421875 129.421875 0 4.199219 3.40625 7.601563 7.605469 7.601563 4.195312 0 7.601562-3.402344 7.601562-7.601563 0-79.75-64.878906-144.628906-144.628906-144.628906zm0 0"/><path d="m367.308594 34.984375c-4.199219 0-7.605469 3.402344-7.605469 7.601563 0 4.199218 3.40625 7.601562 7.605469 7.601562 52.074218 0 94.4375 42.367188 94.4375 94.441406 0 4.199219 3.40625 7.601563 7.605468 7.601563 4.199219 0 7.601563-3.402344 7.601563-7.601563 0-60.457031-49.1875-109.644531-109.644531-109.644531zm0 0"/><path d="m367.308594 69.96875c-4.199219 0-7.605469 3.402344-7.605469 7.601562 0 4.199219 3.40625 7.601563 7.605469 7.601563 32.78125 0 59.457031 26.671875 59.457031 59.457031 0 4.199219 3.402344 7.601563 7.601563 7.601563 4.199218 0 7.601562-3.402344 7.601562-7.601563 0-41.167968-33.492188-74.660156-74.660156-74.660156zm0 0"/><path d="m367.308594 104.953125c-4.199219 0-7.605469 3.402344-7.605469 7.601563 0 4.199218 3.40625 7.601562 7.605469 7.601562 13.492187 0 24.472656 10.980469 24.472656 24.472656 0 4.199219 3.402344 7.601563 7.601562 7.601563 4.199219 0 7.601563-3.402344 7.601563-7.601563 0-21.878906-17.796875-39.675781-39.675781-39.675781zm0 0"/><path d="m324.253906 147.242188c0-22.90625-18.632812-41.539063-41.535156-41.539063h-173.863281c-22.898438 0-41.527344 18.632813-41.527344 41.539063v19.382812c0 .027344-.003906.054688-.003906.078125 0 .027344.003906.054687.003906.078125v116.148438c0 22.902343 18.628906 41.535156 41.527344 41.535156h173.863281c22.902344 0 41.535156-18.632813 41.535156-41.535156zm-41.539062 162.019531h-173.859375c-14.511719 0-26.320313-11.8125-26.320313-26.332031v-108.621094h166.457032c4.199218 0 7.601562-3.40625 7.601562-7.605469 0-4.195313-3.402344-7.601563-7.601562-7.601563h-166.457032v-11.859374c0-14.519532 11.804688-26.332032 26.320313-26.332032h173.863281c14.519531 0 26.328125 11.8125 26.328125 26.332032v11.859374h-29.644531c-4.199219 0-7.601563 3.40625-7.601563 7.601563 0 4.199219 3.402344 7.605469 7.601563 7.605469h29.644531v108.621094c0 14.519531-11.8125 26.332031-26.332031 26.332031zm0 0"/><path d="m72.328125 364.925781c0 16.273438 13.238281 29.511719 29.511719 29.511719 16.273437 0 29.511718-13.238281 29.511718-29.511719 0-16.273437-13.238281-29.515625-29.511718-29.515625-16.273438 0-29.511719 13.242188-29.511719 29.515625zm43.820313 0c0 7.886719-6.417969 14.304688-14.308594 14.304688-7.886719 0-14.308594-6.417969-14.308594-14.304688 0-7.890625 6.421875-14.308593 14.308594-14.308593 7.890625 0 14.308594 6.417968 14.308594 14.308593zm0 0"/><path d="m289.738281 335.410156c-16.277343 0-29.515625 13.242188-29.515625 29.511719 0 16.273437 13.242188 29.515625 29.515625 29.515625 16.269531 0 29.511719-13.242188 29.511719-29.515625 0-16.269531-13.238281-29.511719-29.511719-29.511719zm0 43.820313c-7.890625 0-14.308593-6.417969-14.308593-14.304688 0-7.890625 6.417968-14.308593 14.308593-14.308593 7.886719 0 14.304688 6.417968 14.304688 14.308593 0 7.886719-6.417969 14.304688-14.304688 14.304688zm0 0"/><path d="m363.699219 169.316406h-11.179688v-28.617187c0-35.035157-28.5-63.535157-63.535156-63.535157h-186.394531c-35.035156 0-63.535156 28.503907-63.535156 63.535157v28.617187h-11.179688c-15.367188 0-27.875 12.503906-27.875 27.875v52.75c0 15.371094 12.503906 27.875 27.875 27.875h11.179688v33.5c0 4.199219 3.402343 7.601563 7.601562 7.601563s7.605469-3.402344 7.605469-7.601563v-170.617187c0-26.648438 21.679687-48.328125 48.328125-48.328125h186.394531c26.648437 0 48.328125 21.679687 48.328125 48.328125v263.742187h-283.050781v-62.714844c0-4.199218-3.40625-7.601562-7.605469-7.601562s-7.601562 3.402344-7.601562 7.601562v62.726563c-14.78125.292969-26.714844 12.398437-26.714844 27.246094 0 15.03125 12.226562 27.261719 27.257812 27.261719h7.203125v27.003906c0 14.355468 11.679688 26.035156 26.035157 26.035156h49.363281c14.355469 0 26.035156-11.679688 26.035156-26.035156v-27.003906h95.109375v27.003906c0 14.355468 11.679688 26.035156 26.035156 26.035156h49.363282c14.355468 0 26.035156-11.679688 26.035156-26.035156v-27.003906h7.203125c15.027343 0 27.257812-12.230469 27.257812-27.261719 0-14.847657-11.9375-26.953125-26.71875-27.246094v-126.636719h11.179688c15.371093 0 27.875-12.503906 27.875-27.875v-52.75c0-15.371094-12.503907-27.875-27.875-27.875zm-335.824219 93.296875c-6.984375 0-12.667969-5.683593-12.667969-12.671875v-52.75c0-6.984375 5.683594-12.671875 12.667969-12.671875h11.179688v78.089844h-11.179688zm105.152344 223.351563c0 5.972656-4.855469 10.828125-10.828125 10.828125h-49.363281c-5.972657 0-10.828126-4.855469-10.828126-10.828125v-27.003906h71.019532zm196.542968 0c0 5.972656-4.855468 10.828125-10.828124 10.828125h-49.363282c-5.972656 0-10.832031-4.855469-10.832031-10.828125v-27.003906h71.023437zm34.460938-54.265625c0 6.648437-5.40625 12.054687-12.054688 12.054687h-312.378906c-6.644531 0-12.054687-5.40625-12.054687-12.054687 0-6.644531 5.410156-12.054688 12.054687-12.054688h312.378906c6.648438 0 12.054688 5.410157 12.054688 12.054688zm12.335938-181.757813c0 6.988282-5.683594 12.671875-12.667969 12.671875h-11.179688v-78.089843h11.179688c6.984375 0 12.667969 5.683593 12.667969 12.667968zm0 0"/></svg>