<svg height="464pt" viewBox="0 -72 464 464" width="464pt" xmlns="http://www.w3.org/2000/svg"><path d="m0 128h448c8.835938 0 16 7.164062 16 16v112h-464zm0 0" fill="#fdbd40"/><path d="m0 0h384c17.671875 0 32 14.328125 32 32v96h-416zm0 0" fill="#238892"/><path d="m0 224h464v32h-464zm0 0" fill="#e97424"/><path d="m432 160h32v32h-32zm0 0" fill="#238892"/><path d="m0 160h32v32h-32zm0 0" fill="#e9686a"/><path d="m256 32h80v192h-80zm0 0" fill="#394d5c"/><path d="m0 0h384c17.671875 0 32 14.328125 32 32h-416zm0 0" fill="#fdbd40"/><path d="m48 32h80v96h-80zm0 0" fill="#cfdfe8"/><path d="m128 32h80v96h-80zm0 0" fill="#93bed1"/><path d="m360 56v16h16v16h16v-32zm0 0" fill="#fff"/><path d="m416 272c0 26.507812-21.492188 48-48 48s-48-21.492188-48-48 21.492188-48 48-48 48 21.492188 48 48zm0 0" fill="#546977"/><path d="m136 272c0 26.507812-21.492188 48-48 48s-48-21.492188-48-48 21.492188-48 48-48 48 21.492188 48 48zm0 0" fill="#546977"/><g fill="#cfdfe8"><path d="m104 272c0 8.835938-7.164062 16-16 16s-16-7.164062-16-16 7.164062-16 16-16 16 7.164062 16 16zm0 0"/><path d="m384 272c0 8.835938-7.164062 16-16 16s-16-7.164062-16-16 7.164062-16 16-16 16 7.164062 16 16zm0 0"/></g></svg>