<svg height="472pt" viewBox="0 -127 472 471" width="472pt" xmlns="http://www.w3.org/2000/svg"><path d="m192 90.4375h32v64h-32zm0 0"/><path d="m64 74.4375h16v16h-16zm0 0"/><path d="m192 170.4375h32v16h-32zm0 0"/><path d="m96 74.4375h16v16h-16zm0 0"/><path d="m233.753906 10.4375h-11.507812l-4 16h19.507812zm0 0"/><path d="m296 122.4375h40v-3.722656l-20.441406-13.597656c-.972656-.640626-1.792969-1.492188-2.398438-2.488282-.378906-1.066406-.753906-2.132812-1.121094-3.199218l-6.246093-49.984376c-.5-4-3.894531-7-7.921875-7.007812h-9.871094v72c0 4.417969 3.582031 8 8 8zm0 0"/><path d="m432 40.5c0 8.835938-7.164062 16-16 16s-16-7.164062-16-16 7.164062-16 16-16 16 7.164062 16 16zm0 0"/><path d="m128 74.4375h16v16h-16zm0 0"/><path d="m424 202.4375v-122.746094c20.121094-4.105468 33.863281-22.78125 31.796875-43.210937-2.0625-20.429688-19.261719-35.980469-39.796875-35.980469s-37.734375 15.550781-39.796875 35.980469c-2.066406 20.429687 11.675781 39.105469 31.796875 43.210937v122.746094h-408v16h472v-16zm-40-161.9375c0-17.671875 14.328125-32 32-32s32 14.328125 32 32-14.328125 32-32 32-32-14.328125-32-32zm0 0"/><path d="m304 186.4375h32v-16h-16v-16h16v-16h-40c-13.253906 0-24-10.746094-24-24v-72h-240c-13.253906 0-24 10.742188-24 24v88h16v16h-16v16h32.054688c0 8.804688 7.140624 15.941406 15.945312 15.941406s15.945312-7.136718 15.945312-15.941406h104.054688v-96c0-8.839844 7.164062-16 16-16h32c8.835938 0 16 7.160156 16 16v96h32c0 8.835938 7.164062 16 16 16s16-7.164062 16-16zm-144-48h-112v-16h112zm0-40c0 4.417969-3.582031 8-8 8h-96c-4.417969 0-8-3.582031-8-8v-32c0-4.421875 3.582031-8 8-8h96c4.417969 0 8 3.578125 8 8zm0 0"/></svg>