<svg height="480pt" viewBox="0 -124 480 480" width="480pt" xmlns="http://www.w3.org/2000/svg"><path d="m416 94.0625h16v129.9375h-16zm0 0" fill="#a8a8a8"/><path d="m472 54.054688c0 26.511718-21.492188 48-48 48s-48-21.488282-48-48c0-26.507813 21.492188-48 48-48s48 21.492187 48 48zm0 0" fill="#e4e4e2"/><path d="m64 208c0 8.835938-7.164062 16-16 16s-16-7.164062-16-16 7.164062-16 16-16 16 7.164062 16 16zm0 0" fill="#cdcdcd"/><path d="m320 208c0 8.835938-7.164062 16-16 16s-16-7.164062-16-16 7.164062-16 16-16 16 7.164062 16 16zm0 0" fill="#cdcdcd"/><path d="m216 32 8-32h24l8 32-8 8h-24zm0 0" fill="#fbb540"/><path d="m240 0h-16l-8 32 8 8h16l8-8zm0 0" fill="#ea9d2d"/><path d="m352 192h-344v-128c0-17.671875 14.328125-32 32-32h265.871094c8.070312 0 14.878906 6.007812 15.882812 14.015625l6.246094 49.984375 24 16zm0 0" fill="#85bc94"/><path d="m424 86.0625c-17.671875 0-32-14.324219-32-32 0-17.671875 14.328125-32 32-32s32 14.328125 32 32c0 17.675781-14.328125 32-32 32zm0-48c-8.835938 0-16 7.164062-16 16 0 8.839844 7.164062 16 16 16s16-7.160156 16-16c0-8.835938-7.164062-16-16-16zm0 0" fill="#ea6b65"/><path d="m8 216h472v16h-472zm0 0" fill="#b9b9b9"/><path d="m48 232c-13.253906 0-24-10.746094-24-24s10.746094-24 24-24 24 10.746094 24 24-10.746094 24-24 24zm0-32c-4.417969 0-8 3.582031-8 8s3.582031 8 8 8 8-3.582031 8-8-3.582031-8-8-8zm0 0" fill="#a8a8a8"/><path d="m304 232c-13.253906 0-24-10.746094-24-24s10.746094-24 24-24 24 10.746094 24 24-10.746094 24-24 24zm0-32c-4.417969 0-8 3.582031-8 8s3.582031 8 8 8 8-3.582031 8-8-3.582031-8-8-8zm0 0" fill="#a8a8a8"/><path d="m240 192h-48v-104c0-4.417969 3.582031-8 8-8h32c4.417969 0 8 3.582031 8 8zm0 0" fill="#6b9777"/><path d="m64 64h96v32h-96zm0 0" fill="#c0f5f9"/><path d="m96 64h32v32h-32zm0 0" fill="#b8eaee"/><path d="m352 128h-48c-8.835938 0-16-7.164062-16-16v-80h18.878906c7.632813-.003906 14.203125 5.382812 15.695313 12.863281l5.425781 51.136719 24 16zm0 0" fill="#c0f5f9"/><path d="m314.574219 52.863281c-1.492188-7.480469-8.0625-12.867187-15.695313-12.863281h-10.878906v72c0 8.835938 7.164062 16 16 16h40v-8l-24-16zm0 0" fill="#b8eaee"/><path d="m328 152h24v16h-24zm0 0" fill="#cdcdcd"/><path d="m0 152h32v16h-32zm0 0" fill="#cdcdcd"/><path d="m56 120h112v16h-112zm0 0" fill="#6b9777"/><path d="m192 160h48v32h-48zm0 0" fill="#5e8569"/></svg>