<svg height="512pt" viewBox="-92 0 512 512" width="512pt" xmlns="http://www.w3.org/2000/svg"><path d="m284.910156 0h-241.929687c-23.699219 0-42.980469 19.28125-42.980469 42.980469v426.039062c0 23.699219 19.28125 42.980469 42.980469 42.980469h241.929687c23.695313 0 42.976563-19.28125 42.976563-42.980469v-95.140625c0-4.199218-3.402344-7.601562-7.605469-7.601562-4.199219 0-7.601562 3.402344-7.601562 7.601562v68.332032h-297.472657v-370.402344h31.621094c4.199219 0 7.605469-3.40625 7.605469-7.605469s-3.40625-7.601563-7.605469-7.601563h-31.621094v-13.621093c0-15.3125 12.460938-27.773438 27.773438-27.773438h241.929687c15.3125 0 27.769532 12.460938 27.769532 27.773438v13.621093h-235.433594c-4.199219 0-7.601563 3.402344-7.601563 7.601563s3.402344 7.605469 7.601563 7.605469h235.433594v276.722656c0 4.199219 3.402343 7.605469 7.601562 7.605469 4.203125 0 7.605469-3.40625 7.605469-7.605469v-305.550781c0-23.699219-19.28125-42.980469-42.976563-42.980469zm27.769532 457.417969v11.601562c0 15.316407-12.457032 27.773438-27.769532 27.773438h-241.929687c-15.3125 0-27.773438-12.460938-27.773438-27.773438v-11.601562zm0 0"/><path d="m197.398438 43.613281c4.203124 0 7.605468-3.40625 7.605468-7.605469 0-4.199218-3.402344-7.601562-7.605468-7.601562h-66.910157c-4.199219 0-7.605469 3.402344-7.605469 7.601562 0 4.199219 3.40625 7.605469 7.605469 7.605469zm0 0"/><path d="m209.925781 383.4375h30.847657c10.542968 0 19.121093-8.578125 19.121093-19.121094v-14.550781c2.828125-1.105469 4.835938-3.855469 4.835938-7.078125v-81.019531h4.132812c11.175781 0 20.269531-9.09375 20.269531-20.269531v-32.960938c0-11.179688-9.09375-20.273438-20.269531-20.273438h-4.132812v-15.027343c0-23.464844-19.089844-42.554688-42.554688-42.554688h-116.46875c-23.464843 0-42.554687 19.089844-42.554687 42.554688v15.027343h-4.132813c-11.175781 0-20.269531 9.09375-20.269531 20.273438v32.960938c0 11.175781 9.09375 20.269531 20.269531 20.269531h4.132813v81.019531c0 3.226562 2.007812 5.972656 4.839844 7.082031v14.546875c0 10.542969 8.578124 19.121094 19.121093 19.121094h30.847657c10.542968 0 19.121093-8.578125 19.121093-19.121094v-14.023437h53.722657v14.023437c0 10.542969 8.578124 19.121094 19.121093 19.121094zm34.757813-19.121094c0 2.15625-1.753906 3.910156-3.910156 3.910156h-30.847657c-2.15625 0-3.914062-1.753906-3.914062-3.910156v-14.023437h38.675781v14.023437zm24.179687-160.945312c2.792969 0 5.0625 2.273437 5.0625 5.066406v32.957031c0 2.792969-2.269531 5.066407-5.0625 5.066407h-4.132812v-43.089844zm-190.503906-30.234375c0-15.078125 12.269531-27.347657 27.347656-27.347657h116.46875c15.078125 0 27.347657 12.269532 27.347657 27.347657v161.949219h-171.164063zm-19.339844 73.324219c-2.789062 0-5.0625-2.273438-5.0625-5.066407v-32.957031c0-2.792969 2.273438-5.066406 5.0625-5.066406h4.132813v43.089844zm62.855469 117.855468c0 2.15625-1.753906 3.910156-3.914062 3.910156h-30.847657c-2.15625 0-3.910156-1.753906-3.910156-3.910156v-14.023437h38.671875zm0 0"/><path d="m115.984375 271.917969h95.917969c14.515625 0 26.324218-11.808594 26.324218-26.324219v-63.40625c0-14.515625-11.808593-26.324219-26.324218-26.324219h-95.917969c-14.515625 0-26.320313 11.808594-26.320313 26.324219v63.40625c0 14.515625 11.804688 26.324219 26.320313 26.324219zm95.917969-15.207031h-95.917969c-6.128906 0-11.113281-4.988282-11.113281-11.117188v-40.59375h118.148437v40.59375c0 6.128906-4.988281 11.117188-11.117187 11.117188zm-95.917969-85.640626h95.917969c6.128906 0 11.117187 4.988282 11.117187 11.117188v7.605469h-118.148437v-7.605469c0-6.128906 4.984375-11.117188 11.113281-11.117188zm0 0"/><path d="m105.238281 323.085938c11.742188 0 21.292969-9.550782 21.292969-21.292969 0-11.746094-9.550781-21.296875-21.292969-21.296875-11.742187 0-21.292969 9.554687-21.292969 21.296875 0 11.738281 9.550782 21.292969 21.292969 21.292969zm0-27.382813c3.355469 0 6.085938 2.730469 6.085938 6.089844 0 3.355469-2.730469 6.085937-6.085938 6.085937s-6.085937-2.730468-6.085937-6.085937c0-3.359375 2.730468-6.089844 6.085937-6.089844zm0 0"/><path d="m222.648438 280.496094c-11.742188 0-21.296876 9.554687-21.296876 21.296875 0 11.738281 9.554688 21.292969 21.296876 21.292969 11.742187 0 21.292968-9.550782 21.292968-21.292969 0-11.746094-9.550781-21.296875-21.292968-21.296875zm0 27.382812c-3.355469 0-6.085938-2.730468-6.085938-6.085937 0-3.359375 2.730469-6.089844 6.085938-6.089844 3.355468 0 6.085937 2.730469 6.085937 6.089844 0 3.355469-2.730469 6.085937-6.085937 6.085937zm0 0"/></svg>