<svg height="512pt" viewBox="0 -111 512 512" width="512pt" xmlns="http://www.w3.org/2000/svg"><path d="m50 10c-22.089844 0-40 17.910156-40 40v210h452v-250zm0 0" fill="#e6e6e6"/><path d="m502 50c0-22.089844-17.910156-40-40-40v170h40zm0 0" fill="#72d8ff"/><g fill="#6e6e6e"><path d="m90 260c0 11.046875-8.953125 20-20 20s-20-8.953125-20-20 8.953125-20 20-20 20 8.953125 20 20zm0 0"/><path d="m130 260c0 11.046875-8.953125 20-20 20s-20-8.953125-20-20 8.953125-20 20-20 20 8.953125 20 20zm0 0"/><path d="m382 260c0 11.046875-8.953125 20-20 20s-20-8.953125-20-20 8.953125-20 20-20 20 8.953125 20 20zm0 0"/></g><path d="m10 220h40v40h-40zm0 0" fill="#aaaaa0"/><path d="m462 220h40v40h-40zm0 0" fill="#aaaaa0"/><path d="m462 180h40v40h-40zm0 0" fill="#ffb954"/><path d="m10 50h452v90h-452zm0 0" fill="#72d8ff"/><path d="m382 90h80v170h-80zm0 0" fill="#72d8ff"/><path d="m116.742188 98 17.691406 35.339844 39.566406 5.667968-28.628906 27.507813 6.757812 38.84375-35.386718-18.339844-35.390626 18.339844 6.757813-38.84375-28.628906-27.507813 39.566406-5.667968zm0 0" fill="#ffb954"/><path d="m462 0h-412c-27.570312 0-50 22.429688-50 50v210c0 5.523438 4.476562 10 10 10h31.71875c4.128906 11.640625 15.246094 20 28.28125 20 7.679688 0 14.6875-2.902344 20-7.664062 5.3125 4.761718 12.320312 7.664062 20 7.664062 13.035156 0 24.152344-8.359375 28.28125-20h195.4375c4.128906 11.640625 15.246094 20 28.28125 20s24.152344-8.359375 28.28125-20h111.71875c5.523438 0 10-4.476562 10-10v-210c0-27.570312-22.429688-50-50-50zm-128.28125 250h-195.4375c-4.128906-11.640625-15.246094-20-28.28125-20-7.679688 0-14.6875 2.902344-20 7.664062-5.3125-4.761718-12.320312-7.664062-20-7.664062-3.507812 0-6.871094.609375-10 1.71875v-11.71875c0-5.523438-4.476562-10-10-10h-30v-60h36.488281l20.859375 20.042969s-5.84375 33.578125-5.847656 33.605469c-1.363281 7.832031 7.136719 14.382812 14.453125 10.589843l30.789063-15.953125s30.738281 15.929688 30.785156 15.953125c7.195312 3.730469 15.84375-2.605469 14.453125-10.589843l-5.847657-33.605469 20.859376-20.042969h195.007812v81.71875c-3.128906-1.109375-6.492188-1.71875-10-1.71875-13.035156 0-24.152344 8.359375-28.28125 20zm-313.71875-190h54.613281l-31.109375 70h-23.503906zm134.613281 0-21.496093 48.367188s-7.414063-14.800782-7.433594-14.84375c-3.582032-7.152344-14.308594-7.140626-17.882813 0l-15.351562 30.660156-26.140625 3.746094 30.1875-67.929688zm80 0-31.109375 70h-25.191406c-.902344-.433594-1.871094-.746094-2.894531-.890625l-27.859375-3.992187 28.9375-65.117188zm80 0-31.109375 70h-58.117187l31.109375-70zm-179.09375 108.230469 3.300781 18.96875-17.476562-9.058594c-2.886719-1.492187-6.316406-1.492187-9.203125 0l-17.476563 9.058594 3.300782-18.96875c.566406-3.273438-.527344-6.621094-2.925782-8.925781l-13.847656-13.304688 19.273438-2.761719c3.246094-.464843 6.054687-2.488281 7.523437-5.421875l8.75-17.480468 8.753907 17.480468c1.46875 2.933594 4.277343 4.957032 7.523437 5.421875l19.273437 2.761719-13.847656 13.308594c-2.398437 2.300781-3.492187 5.648437-2.921875 8.921875zm246.480469-88.230469c-5.523438 0-10 4.476562-10 10v40h-66.613281l31.109375-70h115.503906v20zm90 110h20v20h-20zm20-140v120h-20v-148.285156c11.640625 4.125 20 15.25 20 28.285156zm-442-30h402v20h-430.28125c4.128906-11.640625 15.246094-20 28.28125-20zm-30 210h20v20h-20zm50 40c-5.515625 0-10-4.484375-10-10s4.484375-10 10-10 10 4.484375 10 10-4.484375 10-10 10zm40 0c-5.515625 0-10-4.484375-10-10s4.484375-10 10-10 10 4.484375 10 10-4.484375 10-10 10zm252 0c-5.515625 0-10-4.484375-10-10s4.484375-10 10-10 10 4.484375 10 10-4.484375 10-10 10zm30-170h60v150h-60zm100 150h-20v-20h20zm0 0"/><path d="m194 190h8c5.511719 0 10-4.488281 10-10s-4.488281-10-10-10h-8c-5.511719 0-10 4.488281-10 10s4.488281 10 10 10zm0 0"/><path d="m242 190c5.511719 0 10-4.488281 10-10s-4.488281-10-10-10-10 4.488281-10 10 4.488281 10 10 10zm0 0"/><path d="m342 170h-60c-5.511719 0-10 4.488281-10 10s4.488281 10 10 10h60c5.511719 0 10-4.488281 10-10s-4.488281-10-10-10zm0 0"/><path d="m314 210h-120c-5.523438 0-10 4.476562-10 10s4.476562 10 10 10h120c5.523438 0 10-4.476562 10-10s-4.476562-10-10-10zm0 0"/></svg>