<svg height="480pt" viewBox="0 -120 480.00004 480" width="480pt" xmlns="http://www.w3.org/2000/svg"><path d="m416 102.0625h16v129.9375h-16zm0 0" fill="#a8a8a8"/><path d="m472 62.054688c0 26.511718-21.492188 48-48 48s-48-21.488282-48-48c0-26.507813 21.492188-48 48-48s48 21.492187 48 48zm0 0" fill="#e4e4e2"/><path d="m64 216c0 8.835938-7.164062 16-16 16s-16-7.164062-16-16 7.164062-16 16-16 16 7.164062 16 16zm0 0" fill="#cdcdcd"/><path d="m320 216c0 8.835938-7.164062 16-16 16s-16-7.164062-16-16 7.164062-16 16-16 16 7.164062 16 16zm0 0" fill="#cdcdcd"/><path d="m216 40 8-32h24l8 32-8 8h-24zm0 0" fill="#fbb540"/><path d="m240 8h-16l-8 32 8 8h16l8-8zm0 0" fill="#ea9d2d"/><path d="m352 200h-344v-128c0-17.671875 14.328125-32 32-32h265.871094c8.070312 0 14.878906 6.007812 15.882812 14.015625l6.246094 49.984375 24 16zm0 0" fill="#85bc94"/><path d="m424 94.0625c-17.671875 0-32-14.324219-32-32 0-17.671875 14.328125-32 32-32s32 14.328125 32 32c0 17.675781-14.328125 32-32 32zm0-48c-8.835938 0-16 7.164062-16 16 0 8.839844 7.164062 16 16 16s16-7.160156 16-16c0-8.835938-7.164062-16-16-16zm0 0" fill="#ea6b65"/><path d="m8 224h472v16h-472zm0 0" fill="#b9b9b9"/><path d="m48 240c-13.253906 0-24-10.746094-24-24s10.746094-24 24-24 24 10.746094 24 24-10.746094 24-24 24zm0-32c-4.417969 0-8 3.582031-8 8s3.582031 8 8 8 8-3.582031 8-8-3.582031-8-8-8zm0 0" fill="#a8a8a8"/><path d="m304 240c-13.253906 0-24-10.746094-24-24s10.746094-24 24-24 24 10.746094 24 24-10.746094 24-24 24zm0-32c-4.417969 0-8 3.582031-8 8s3.582031 8 8 8 8-3.582031 8-8-3.582031-8-8-8zm0 0" fill="#a8a8a8"/><path d="m240 200h-48v-104c0-4.417969 3.582031-8 8-8h32c4.417969 0 8 3.582031 8 8zm0 0" fill="#6b9777"/><path d="m64 72h96v32h-96zm0 0" fill="#c0f5f9"/><path d="m96 72h32v32h-32zm0 0" fill="#b8eaee"/><path d="m352 136h-48c-8.835938 0-16-7.164062-16-16v-80h18.878906c7.632813-.003906 14.203125 5.382812 15.695313 12.863281l5.425781 51.136719 24 16zm0 0" fill="#c0f5f9"/><path d="m314.574219 60.863281c-1.492188-7.480469-8.0625-12.867187-15.695313-12.863281h-10.878906v72c0 8.835938 7.164062 16 16 16h40v-8l-24-16zm0 0" fill="#b8eaee"/><path d="m328 160h24v16h-24zm0 0" fill="#cdcdcd"/><path d="m0 160h32v16h-32zm0 0" fill="#cdcdcd"/><path d="m56 128h112v16h-112zm0 0" fill="#6b9777"/><path d="m192 168h48v32h-48zm0 0" fill="#5e8569"/><path d="m456 62.0625c0-17.671875-14.328125-32-32-32s-32 14.328125-32 32c0 17.675781 14.328125 32 32 32s32-14.324219 32-32zm-48 0c0-8.835938 7.164062-16 16-16s16 7.164062 16 16c0 8.839844-7.164062 16-16 16s-16-7.160156-16-16zm0 0"/><path d="m480 62.0625c.035156-29.894531-23.421875-54.546875-53.28125-56-29.863281-1.449219-55.597656 20.8125-58.460938 50.570312-2.863281 29.757813 18.152344 56.519532 47.742188 60.792969v106.574219h-89.472656c1.964844-5.152344 1.964844-10.847656 0-16h25.472656c4.417969 0 8-3.582031 8-8v-80c0-2.675781-1.335938-5.171875-3.558594-6.65625l-20.953125-13.96875-5.800781-46.351562c-1.5-12.011719-11.710938-21.023438-23.816406-21.023438h-43.632813l-6.476562-25.9375c-.890625-3.5625-4.089844-6.0625-7.761719-6.0625h-24c-3.671875 0-6.871094 2.5-7.761719 6.0625l-6.476562 25.9375h-169.761719c-22.082031.027344-39.9726562 17.917969-40 40v128c0 4.417969 3.582031 8 8 8h17.472656c-1.964844 5.152344-1.964844 10.847656 0 16h-17.472656v16h472v-16h-48v-106.574219c27.515625-3.996093 47.945312-27.558593 48-55.363281zm-168 153.9375c0 4.417969-3.582031 8-8 8s-8-3.582031-8-8 3.582031-8 8-8 8 3.582031 8 8zm-80-56h-32v-64h32zm-32 16h32v16h-32zm81.472656 32c-1.964844 5.152344-1.964844 10.847656 0 16h-210.945312c1.964844-5.152344 1.964844-10.847656 0-16zm32.34375-152.992188 6.246094 49.984376c.289062 2.304687 1.566406 4.375 3.496094 5.664062l20.441406 13.625v3.71875h-40c-4.417969 0-8-3.582031-8-8v-72h9.871094c4.039062-.003906 7.445312 3.003906 7.945312 7.007812zm-83.570312-39.007812h11.507812l4 16h-19.507812zm-214.246094 160h16v-16h-16v-88c0-13.253906 10.746094-24 24-24h240v72c0 13.253906 10.746094 24 24 24h40v16h-16v16h16v16h-96v-96c0-8.835938-7.164062-16-16-16h-32c-8.835938 0-16 7.164062-16 16v96h-168zm24 40c0-4.417969 3.582031-8 8-8s8 3.582031 8 8-3.582031 8-8 8-8-3.582031-8-8zm344-153.9375c0-22.089844 17.910156-40 40-40s40 17.910156 40 40c0 22.09375-17.910156 40-40 40-22.082031-.023438-39.972656-17.917969-40-40zm0 0"/><path d="m64 112h96c4.417969 0 8-3.582031 8-8v-32c0-4.417969-3.582031-8-8-8h-96c-4.417969 0-8 3.582031-8 8v32c0 4.417969 3.582031 8 8 8zm40-16v-16h16v16zm48 0h-16v-16h16zm-80-16h16v16h-16zm0 0"/><path d="m56 128h112v16h-112zm0 0"/></svg>