<svg height="512pt" viewBox="0 0 512 512.00001" width="512pt" xmlns="http://www.w3.org/2000/svg"><path d="m512 256c0 141.386719-114.617188 256-256 256-141.386719 0-256-114.613281-256-256 0-141.382812 114.613281-256 256-256 141.382812 0 256 114.617188 256 256zm0 0" fill="#5ed1c7"/><path d="m410.78125 459.921875c-42.976562 32.671875-96.609375 52.078125-154.777344 52.078125-58.171875 0-111.804687-19.40625-154.78125-52.078125 32.097656-15.683594 89.410156-26.121094 154.78125-26.121094 65.367188 0 122.691406 10.4375 154.777344 26.121094zm0 0" fill="#2ba494"/><path d="m436.167969 150.21875c-35.816407-200.289062-324.523438-200.289062-360.335938 0-3.191406 17.832031-4.855469 36.1875-4.855469 54.9375 0 126.746094 76.0625 235.710938 185.023438 283.792969 108.957031-48.082031 185.019531-157.046875 185.019531-283.792969 0-18.75-1.664062-37.105469-4.851562-54.9375zm0 0" fill="#5986b8"/><path d="m400.859375 183.796875c0 74.394531-56.078125 135.707031-128.273437 143.921875-5.441407.628906-10.96875.949219-16.582032.949219-80 0-144.871094-64.867188-144.871094-144.871094 0-80 64.871094-144.855469 144.871094-144.855469 5.613282 0 11.140625.324219 16.582032.953125 72.195312 8.214844 128.273437 69.511719 128.273437 143.902344zm0 0" fill="#fcf8f2"/><path d="m273.785156 29.519531c-5.859375-.679687-11.835937-1.023437-17.78125-1.023437-6.429687 0-12.765625.390625-18.988281 1.152344-16.503906 2.019531-21.179687-22.027344-5.136719-26.398438 7.949219-2.167969 16.035156-3.25 24.125-3.25-81.128906 0-162.261718 50.082031-180.171875 150.226562-3.1875 17.824219-4.847656 36.183594-4.847656 54.929688 0 126.746094 76.054687 235.707031 185.019531 283.792969-34.183594-22.261719-63.589844-57.566407-85.316406-101.640625-14.460938-29.335938 12.636719-62.390625 44.171875-53.71875 13.109375 3.605468 26.90625 5.53125 41.144531 5.53125 5.945313 0 11.921875-.347656 17.761719-1.023438 78.410156-8.914062 137.539063-75.253906 137.539063-154.300781 0-79.035156-59.128907-145.367187-137.519532-154.277344zm-2.402344 287.816407c-5.066406.585937-10.238281.886718-15.378906.886718-56.164062 0-104.386718-34.628906-124.46875-83.652344 0 0 .011719 0 0-.011718-6.40625-15.671875-9.949218-32.808594-9.949218-50.761719 0-24.910156 6.8125-48.253906 18.664062-68.273437 23.425781-39.550782 66.546875-66.132813 115.753906-66.132813 5.140625 0 10.3125.292969 15.402344.890625 67.84375 7.710938 119 65.117188 119 133.515625 0 68.410156-51.15625 125.816406-119.023438 133.539063zm0 0" fill="#38538a"/><path d="m218.929688 292.097656h-24.863282c-5.128906 0-9.285156-4.15625-9.285156-9.285156v-27.332031h43.433594v27.332031c-.003906 5.128906-4.15625 9.285156-9.285156 9.285156zm0 0" fill="#494966"/><path d="m317.921875 292.097656h-24.863281c-5.128906 0-9.285156-4.15625-9.285156-9.285156v-27.332031h43.433593v27.332031c0 5.128906-4.15625 9.285156-9.285156 9.285156zm0 0" fill="#494966"/><path d="m196.519531 274.9375v7.875c0 5.128906 4.15625 9.285156 9.285157 9.285156h-11.738282c-5.125 0-9.285156-4.15625-9.285156-9.285156v-27.328125h43.433594v19.453125zm0 0" fill="#343b5b"/><path d="m295.511719 274.9375v7.875c0 5.128906 4.15625 9.285156 9.285156 9.285156h-11.738281c-5.125 0-9.285156-4.15625-9.285156-9.285156v-27.328125h43.433593v19.453125zm0 0" fill="#343b5b"/><path d="m180.882812 174.144531h-9.460937c-5.640625 0-10.210937-4.570312-10.210937-10.210937v-26.570313c0-5.636719 4.570312-10.207031 10.210937-10.207031h169.144531c5.640625 0 10.210938 4.570312 10.210938 10.207031v26.570313c0 5.640625-4.570313 10.210937-10.210938 10.210937h-9.460937" fill="#494966"/><path d="m331.109375 108.914062v136.667969h-150.226563v-136.667969c0-15.5625 12.609376-28.175781 28.171876-28.175781h93.878906c15.5625 0 28.175781 12.613281 28.175781 28.175781zm0 0" fill="#e53841"/><path d="m331.109375 108.914062v136.667969h-133.707031v-136.667969c0-15.5625 12.617187-28.175781 28.175781-28.175781h77.355469c15.5625 0 28.175781 12.613281 28.175781 28.175781zm0 0" fill="#fc5f61"/><path d="m316.867188 112.199219v68.347656c0 9.4375-7.648438 17.09375-17.082032 17.09375h-87.574218c-9.433594 0-17.082032-7.65625-17.082032-17.09375v-68.347656c0-9.433594 7.648438-17.082031 17.082032-17.082031h87.574218c1.984375 0 3.886719.335937 5.652344.960937 6.65625 2.339844 11.429688 8.671875 11.429688 16.121094zm0 0" fill="#e3faff"/><path d="m305.375 112.199219v68.347656c0 9.4375-7.648438 17.09375-17.085938 17.09375h-76.078124c-9.433594 0-17.082032-7.65625-17.082032-17.09375v-68.347656c0-9.433594 7.648438-17.082031 17.082032-17.082031h76.078124c1.984376 0 3.886719.335937 5.652344.960937 6.65625 2.339844 11.433594 8.671875 11.433594 16.121094zm0 0" fill="#c5f3ff"/><path d="m316.867188 112.207031v9.800781h-121.746094v-9.800781c0-9.441406 7.652344-17.09375 17.085937-17.09375h87.570313c9.4375 0 17.089844 7.652344 17.089844 17.09375zm0 0" fill="#494966"/><path d="m344.5625 255.480469c0 5.464843-4.433594 9.898437-9.898438 9.898437h-157.339843c-2.734375 0-5.210938-1.105468-7-2.898437-1.792969-1.789063-2.902344-4.269531-2.902344-7.003907 0-5.464843 4.433594-9.894531 9.902344-9.894531h157.339843c2.730469 0 5.207032 1.109375 7 2.898438 1.789063 1.789062 2.898438 4.265625 2.898438 7zm0 0" fill="#ccc"/><path d="m344.5625 255.480469c0 5.464843-4.433594 9.898437-9.898438 9.898437h-130.21875c-2.734374 0-5.207031-1.105468-7.003906-2.898437-1.789062-1.789063-2.898437-4.269531-2.898437-7.003907 0-5.464843 4.433593-9.894531 9.902343-9.894531h130.21875c2.730469 0 5.207032 1.109375 7 2.898438 1.789063 1.789062 2.898438 4.265625 2.898438 7zm0 0" fill="#e8e3dd"/><g fill="#fdd25d"><path d="m207.414062 214.269531h-26.53125v18.679688h45.210938c0-10.316407-8.363281-18.679688-18.679688-18.679688zm0 0"/><path d="m304.578125 214.269531h26.53125v18.679688h-45.214844c0-10.316407 8.363281-18.679688 18.683594-18.679688zm0 0"/></g></svg>