<svg height="512pt" viewBox="0 0 512 512" width="512pt" xmlns="http://www.w3.org/2000/svg"><path d="m512 165c0 8.289062-6.710938 15-15 15h-60c-8.289062 0-15-6.710938-15-15v-90c0-8.289062 6.710938-15 15-15h60c8.289062 0 15 6.710938 15 15zm0 0" fill="#293939"/><path d="m90 165c0 8.289062-6.710938 15-15 15h-60c-8.289062 0-15-6.710938-15-15v-90c0-8.289062 6.710938-15 15-15h60c8.289062 0 15 6.710938 15 15zm0 0" fill="#384949"/><path d="m75 75h362v150h-362zm0 0" fill="#a8ebfa"/><path d="m256 75h181v150h-181zm0 0" fill="#76e2f8"/><path d="m450.5 60h-389c-.898438 4.800781-1.5 9.898438-1.5 15v150c0 8.398438 6.597656 15 15 15h362c8.402344 0 15-6.601562 15-15v-150c0-5.101562-.601562-10.199219-1.5-15zm-209.5 150h-151v-120h151zm181 0h-151v-120h151zm0 0" fill="#ff9f00"/><path d="m450.5 60-11.699219 29.699219c-.601562 0-1.199219.300781-1.800781.300781h-348.800781c-12.296875-13.5-26.097657-29.101562-26.699219-30 6.902344-34.199219 37.199219-60 73.5-60h242c36.300781 0 66.597656 25.800781 73.5 60zm0 0" fill="#ff9f00"/><path d="m450.5 60-11.699219 29.699219c-.601562 0-1.199219.300781-1.800781.300781h-181v-90h121c36.300781 0 66.597656 25.800781 73.5 60zm0 0" fill="#ff7816"/><path d="m450.5 60h-194.5v180h181c8.402344 0 15-6.601562 15-15v-150c0-5.101562-.601562-10.199219-1.5-15zm-28.5 150h-151v-120h151zm0 0" fill="#ff7816"/><path d="m512 255v105l-79.5 30h-376.398438l-56.101562-30v-105c0-24.902344 20.097656-45 45-45h422c24.902344 0 45 20.097656 45 45zm0 0" fill="#fdbf00"/><path d="m180 0v90h152v-90zm0 0" fill="#ffd400"/><path d="m512 255v105l-79.5 30h-176.5v-180h211c24.902344 0 45 20.097656 45 45zm0 0" fill="#ff9f00"/><path d="m256 0h76v90h-76zm0 0" fill="#fdbf00"/><path d="m362 193.199219c-1.199219-7.5-7.5-13.199219-15-13.199219h-182c-7.5 0-13.800781 5.699219-15 13.199219l-22.5 180c-.300781 4.199219.902344 8.398437 3.898438 11.699219 2.699218 3.300781 6.902343 5.101562 11.101562 5.101562h227c4.199219 0 8.402344-1.800781 11.101562-5.101562 2.996094-3.300782 4.199219-7.5 3.898438-11.699219zm0 0" fill="#ffd400"/><path d="m384.5 373.199219c.300781 4.199219-.902344 8.398437-3.898438 11.699219-2.699218 3.300781-6.902343 5.101562-11.101562 5.101562h-113.5v-210h91c7.5 0 13.800781 5.699219 15 13.199219zm0 0" fill="#fdbf00"/><path d="m309.402344 255c0 8.398438-6.601563 15-15 15h-68.402344c-8.402344 0-15-6.601562-15-15 0-8.402344 6.597656-15 15-15h68.402344c8.398437 0 15 6.597656 15 15zm0 0" fill="#3e5959"/><path d="m309.402344 315c0 8.398438-6.601563 15-15 15h-68.402344c-8.402344 0-15-6.601562-15-15 0-8.402344 6.597656-15 15-15h68.402344c8.398437 0 15 6.597656 15 15zm0 0" fill="#3e5959"/><g fill="#384949"><path d="m294.402344 330h-38.402344v-30h38.402344c8.398437 0 15 6.597656 15 15 0 8.398438-6.601563 15-15 15zm0 0"/><path d="m294.402344 270h-38.402344v-30h38.402344c8.398437 0 15 6.597656 15 15 0 8.398438-6.601563 15-15 15zm0 0"/><path d="m75 512c-24.8125 0-45-20.1875-45-45v-30c0-8.289062 6.710938-15 15-15h60c8.289062 0 15 6.710938 15 15v30c0 24.8125-20.1875 45-45 45zm0 0"/></g><path d="m437 512c-24.8125 0-45-20.1875-45-45v-30c0-8.289062 6.710938-15 15-15h60c8.289062 0 15 6.710938 15 15v30c0 24.8125-20.1875 45-45 45zm0 0" fill="#293939"/><path d="m0 360v77c0 8.398438 6.597656 15 15 15h482c8.402344 0 15-6.601562 15-15v-77zm0 0" fill="#4a696f"/><path d="m512 360v77c0 8.398438-6.597656 15-15 15h-241v-92zm0 0" fill="#3e5959"/><path d="m437 330c-16.539062 0-30-13.460938-30-30s13.460938-30 30-30 30 13.460938 30 30-13.460938 30-30 30zm0 0" fill="#c6e2e7"/><path d="m75 330c-16.539062 0-30-13.460938-30-30s13.460938-30 30-30 30 13.460938 30 30-13.460938 30-30 30zm0 0" fill="#deecf1"/></svg>