<?xml version="1.0" encoding="iso-8859-1"?>
<!-- Generator: Adobe Illustrator 16.0.0, SVG Export Plug-In . SVG Version: 6.00 Build 0)  -->
<!DOCTYPE svg PUBLIC "-//W3C//DTD SVG 1.1//EN" "http://www.w3.org/Graphics/SVG/1.1/DTD/svg11.dtd">
<svg version="1.1" id="Capa_1" xmlns="http://www.w3.org/2000/svg" xmlns:xlink="http://www.w3.org/1999/xlink" x="0px" y="0px"
	 width="31.566px" height="31.566px" viewBox="0 0 31.566 31.566" style="enable-background:new 0 0 31.566 31.566;"
	 xml:space="preserve">
<g>
	<g>
		<polygon points="3.63,27.759 5.28,27.759 5.28,30.067 9.405,30.067 9.405,27.759 22.273,27.759 22.273,30.067 26.398,30.067 
			26.398,27.759 27.717,27.759 27.717,26.329 3.63,26.329 		"/>
		<path d="M3.63,4.273v21.063h24.087V4.273c0,0-2.42-2.42-11.988-2.75C6.159,1.194,3.63,4.273,3.63,4.273z M7.48,4.273
			c0.546,0,0.989,0.445,0.989,0.991S8.026,6.254,7.48,6.254c-0.547,0-0.991-0.442-0.991-0.988S6.933,4.273,7.48,4.273z M5.499,8.069
			h9.24v8.966H12.29l-1.262-1.706h-0.606H9.767h-0.55L7.8,17.035H5.499V8.069z M9.17,17.035H8.572l0.587-0.673l0.069,0.545
			L9.17,17.035z M10.986,17.035l-0.084-0.128l0.054-0.671l0.595,0.799H10.986z M7.342,23.305c-1.14,0-2.062-0.924-2.062-2.062
			c0-1.142,0.922-2.063,2.062-2.063c1.14,0,2.063,0.923,2.063,2.063C9.405,22.381,8.482,23.305,7.342,23.305z M20.35,24.237h-9.242
			V23.14h9.242V24.237z M20.35,22.204h-9.242v-1.1h9.242V22.204z M20.35,20.112h-9.242v-1.1h9.242V20.112z M26.398,21.243
			c0,1.138-0.924,2.062-2.063,2.062c-1.138,0-2.062-0.924-2.062-2.062c0-1.142,0.924-2.063,2.062-2.063
			C25.475,19.18,26.398,20.103,26.398,21.243z M23.757,4.057c0.548,0,0.991,0.443,0.991,0.989s-0.443,0.988-0.991,0.988
			c-0.546,0-0.989-0.442-0.989-0.988S23.211,4.057,23.757,4.057z M16.279,8.069h9.238v8.966h-1.832l-0.373-2.731h-1.373
			l-0.814,0.944l-0.788-0.944l-1.724,0.322l-0.074,2.409h-2.26V8.069z"/>
		<rect y="9.5" width="2.969" height="3.96"/>
		<rect x="28.598" y="9.28" width="2.969" height="3.961"/>
		<circle cx="21.163" cy="11.845" r="2.138"/>
		<path d="M8.15,15.101c-0.079-0.714,0.262-1.146,0.394-1.282c0.122,0.738,0.759,1.306,1.532,1.306c0.732,0,1.343-0.509,1.51-1.191
			c0.125,0.224,0.338,0.68,0.287,1.169c1.298-0.011,0.659-1.495-0.252-1.657c-0.006-0.075-0.012-0.151-0.029-0.225
			c-0.054-0.469-0.474-1.423-1.676-1.394c-1.04,0.023-1.266,0.804-1.321,1.279c-0.037,0.117-0.06,0.239-0.068,0.366
			C7.177,13.707,7.326,15.078,8.15,15.101z M9.346,13.126c0,0,0.133,0.046,0.133,0.479c0.229,0.08,0.627-0.674,0.627-0.674v0.594
			c0.255,0.068,1.053-0.021,1.053-0.021l0.03,0.024c0.001,0.014,0.004,0.024,0.004,0.038c0,0.615-0.501,1.117-1.117,1.117
			c-0.607,0-1.101-0.488-1.114-1.093C9.183,13.51,9.346,13.126,9.346,13.126z"/>
	</g>
</g>
<g>
</g>
<g>
</g>
<g>
</g>
<g>
</g>
<g>
</g>
<g>
</g>
<g>
</g>
<g>
</g>
<g>
</g>
<g>
</g>
<g>
</g>
<g>
</g>
<g>
</g>
<g>
</g>
<g>
</g>
</svg>
