<?xml version="1.0" encoding="iso-8859-1"?>
<!-- Generator: Adobe Illustrator 19.0.0, SVG Export Plug-In . SVG Version: 6.00 Build 0)  -->
<svg version="1.1" id="Capa_1" xmlns="http://www.w3.org/2000/svg" xmlns:xlink="http://www.w3.org/1999/xlink" x="0px" y="0px"
	 viewBox="0 0 512 512" style="enable-background:new 0 0 512 512;" xml:space="preserve">
<path style="fill:#F26B6B;" d="M471.961,135.883H40.039C17.962,135.883,0,153.844,0,175.922v168.164
	c0,4.422,3.586,8.008,8.008,8.008h495.984c4.422,0,8.008-3.586,8.008-8.008V175.922C512,153.844,494.038,135.883,471.961,135.883z"
	/>
<path style="fill:#E26161;" d="M16.016,344.086V175.922c0-22.078,17.962-40.039,40.039-40.039H40.039
	C17.962,135.883,0,153.844,0,175.922v168.164c0,4.422,3.586,8.008,8.008,8.008h16.016C19.601,352.094,16.016,348.508,16.016,344.086
	z"/>
<path style="fill:#9BE8E8;" d="M54.937,159.573H3.504C1.259,164.569,0,170.099,0,175.922v40.039h64.063v-47.263
	C64.063,163.658,59.977,159.573,54.937,159.573z"/>
<path style="fill:#79D1D1;" d="M56.54,159.573H3.504C1.259,164.569,0,170.099,0,175.922v40.039h29.362l34.701-34.701v-14.166
	C64.063,162.94,60.695,159.573,56.54,159.573z"/>
<path style="fill:#73BFBF;" d="M19.52,159.573H3.504C1.259,164.569,0,170.099,0,175.922v40.039h16.016v-40.039
	C16.016,170.099,17.275,164.569,19.52,159.573z"/>
<path style="fill:#9BE8E8;" d="M423.296,159.573h-45.812c-5.04,0-9.126,4.086-9.126,9.126v47.263h64.063v-47.263
	C432.422,163.658,428.336,159.573,423.296,159.573z"/>
<path style="fill:#79D1D1;" d="M424.9,159.573h-49.019c-4.154,0-7.522,3.367-7.522,7.522v48.867h25.358l38.706-38.706v-10.162
	C432.422,162.94,429.055,159.573,424.9,159.573z"/>
<path style="fill:#9BE8E8;" d="M135.015,159.573H89.204c-5.04,0-9.126,4.086-9.126,9.126v47.263h64.063v-47.263
	C144.141,163.658,140.055,159.573,135.015,159.573z"/>
<path style="fill:#79D1D1;" d="M136.618,159.573H87.601c-4.154,0-7.522,3.367-7.522,7.522v48.867h30.029l34.033-34.033v-14.833
	C144.141,162.94,140.773,159.573,136.618,159.573z"/>
<path style="fill:#9BE8E8;" d="M215.093,159.573h-45.812c-5.04,0-9.126,4.086-9.126,9.126v47.263h64.063v-47.263
	C224.219,163.658,220.133,159.573,215.093,159.573z"/>
<path style="fill:#79D1D1;" d="M216.697,159.573h-49.019c-4.154,0-7.522,3.367-7.522,7.522v48.867h30.697l33.367-33.367v-15.5
	C224.219,162.94,220.852,159.573,216.697,159.573z"/>
<rect x="432.422" y="159.576" style="fill:#F26B6B;" width="16.016" height="192.518"/>
<path style="fill:#9BE8E8;" d="M512,175.922c0-5.823-1.259-11.353-3.504-16.349h-50.933c-5.04,0-9.126,4.086-9.126,9.126v47.596
	h63.562v-40.373H512z"/>
<path style="fill:#79D1D1;" d="M512,175.922c0-5.823-1.259-11.353-3.504-16.349H455.96c-4.154,0-7.522,3.367-7.522,7.522v49.2h31.03
	L512,183.763L512,175.922L512,175.922z"/>
<path style="fill:#9BE8E8;" d="M244.239,352.094v-184.18c0-2.208,1.796-4.004,4.004-4.004h96.094c2.208,0,4.004,1.796,4.004,4.004
	v184.18H244.239z"/>
<g>
	<polygon style="fill:#79D1D1;" points="307.633,352.094 348.34,352.094 348.34,311.387 	"/>
	<polygon style="fill:#79D1D1;" points="244.239,284.695 244.239,352.094 274.935,352.094 348.34,278.689 348.34,180.593 	"/>
	<path style="fill:#79D1D1;" d="M248.242,163.91c-2.208,0-4.004,1.796-4.004,4.004v72.738l76.742-76.742H248.242z"/>
</g>
<path style="fill:#645BA5;" d="M424.414,280.023c-26.493,0-48.047,21.554-48.047,48.047s21.554,48.047,48.047,48.047
	s48.047-21.554,48.047-48.047S450.907,280.023,424.414,280.023z"/>
<path style="fill:#494170;" d="M424.414,296.039c-17.662,0-32.031,14.369-32.031,32.031s14.369,32.031,32.031,32.031
	s32.031-14.369,32.031-32.031S442.077,296.039,424.414,296.039z"/>
<path style="fill:#EDECF1;" d="M424.414,304.047c-13.247,0-24.023,10.777-24.023,24.023s10.777,24.023,24.023,24.023
	s24.023-10.777,24.023-24.023S437.661,304.047,424.414,304.047z"/>
<path style="fill:#645BA5;" d="M88.086,280.023c-26.493,0-48.047,21.554-48.047,48.047s21.554,48.047,48.047,48.047
	s48.047-21.554,48.047-48.047S114.579,280.023,88.086,280.023z"/>
<path style="fill:#494170;" d="M88.086,296.039c-17.662,0-32.031,14.369-32.031,32.031s14.369,32.031,32.031,32.031
	s32.031-14.369,32.031-32.031S105.748,296.039,88.086,296.039z"/>
<path style="fill:#EDECF1;" d="M88.086,304.047c-13.247,0-24.023,10.777-24.023,24.023s10.777,24.023,24.023,24.023
	s24.023-10.777,24.023-24.023S101.333,304.047,88.086,304.047z"/>
<rect y="215.961" style="fill:#EDBC53;" width="240.235" height="64.063"/>
<rect y="215.961" style="fill:#F09C48;" width="16.016" height="64.063"/>
<rect x="352.344" y="215.961" style="fill:#EDBC53;" width="159.656" height="64.063"/>
<g>
	<path style="fill:#D65151;" d="M344.336,159.906h-96.094c-4.422,0-8.008,3.585-8.008,8.008v184.18h8.008V173.086
		c0-2.856,2.315-5.172,5.172-5.172h29.696c2.856,0,5.172,2.315,5.172,5.172v179.008h16.016V173.086c0-2.856,2.315-5.172,5.172-5.172
		h29.696c2.856,0,5.172,2.315,5.172,5.172v179.008h8.008v-184.18C352.344,163.492,348.759,159.906,344.336,159.906z"/>
	<path style="fill:#D65151;" d="M320.313,264.008h-1.001c-4.422,0-8.008-3.585-8.008-8.008c0-4.422,3.585-8.008,8.008-8.008h1.001
		c4.422,0,8.008,3.586,8.008,8.008C328.321,260.422,324.735,264.008,320.313,264.008z"/>
	<path style="fill:#D65151;" d="M273.267,264.008h-1.001c-4.422,0-8.008-3.585-8.008-8.008c0-4.422,3.586-8.008,8.008-8.008h1.001
		c4.422,0,8.008,3.586,8.008,8.008C281.275,260.422,277.689,264.008,273.267,264.008z"/>
</g>
<g>
</g>
<g>
</g>
<g>
</g>
<g>
</g>
<g>
</g>
<g>
</g>
<g>
</g>
<g>
</g>
<g>
</g>
<g>
</g>
<g>
</g>
<g>
</g>
<g>
</g>
<g>
</g>
<g>
</g>
</svg>
