<?xml version="1.0" encoding="iso-8859-1"?>
<!-- Generator: Adobe Illustrator 19.0.0, SVG Export Plug-In . SVG Version: 6.00 Build 0)  -->
<svg version="1.1" id="Capa_1" xmlns="http://www.w3.org/2000/svg" xmlns:xlink="http://www.w3.org/1999/xlink" x="0px" y="0px"
	 viewBox="0 0 512 512" style="enable-background:new 0 0 512 512;" xml:space="preserve">
<g>
	<g>
		<path d="M194.452,280.24h-23.548c-5.523,0-10,4.478-10,10c0,5.522,4.477,10,10,10h23.548c5.523,0,10-4.478,10-10
			C204.452,284.718,199.975,280.24,194.452,280.24z"/>
	</g>
</g>
<g>
	<g>
		<path d="M113.419,260.24c-16.542,0-30,13.458-30,30s13.458,30,30,30s30-13.458,30-30S129.961,260.24,113.419,260.24z
			 M113.419,300.24c-5.514,0-10-4.486-10-10c0-5.514,4.486-10,10-10s10,4.486,10,10C123.419,295.754,118.934,300.24,113.419,300.24z
			"/>
	</g>
</g>
<g>
	<g>
		<path d="M227.19,150.08c-1.86-1.87-4.44-2.931-7.07-2.931c-2.64,0-5.21,1.061-7.07,2.931c-1.86,1.859-2.93,4.439-2.93,7.069
			c0,2.631,1.07,5.21,2.93,7.07s4.43,2.93,7.07,2.93c2.63,0,5.21-1.069,7.07-2.93c1.86-1.861,2.93-4.439,2.93-7.07
			C230.12,154.519,229.05,151.939,227.19,150.08z"/>
	</g>
</g>
<g>
	<g>
		<path d="M510.387,363.597c0.002-0.001,0.004-0.001,0.006-0.002l-50.458-77.9c-5.947-9.182-16.029-14.663-26.969-14.663H384
			v-55.969h14.516c11.847,0,21.484-9.638,21.484-21.484v-54.063c0-11.847-9.638-21.484-21.484-21.484H384V37.698
			c0-20.77-16.897-37.667-37.667-37.667H73.667C52.897,0.031,36,16.929,36,37.698v80.333H21.484C9.638,118.031,0,127.669,0,139.516
			v54.063c0,11.847,9.638,21.484,21.484,21.484H36v80.969c0,31.474,23.581,57.528,54,61.467v10.533c0,16.542,13.458,30,30,30
			s30-13.458,30-30v-10h27.21l-3.604,5.563c0.002,0.001,0.004,0.001,0.006,0.002c-1.017,1.565-1.613,3.429-1.613,5.435V444
			c0,15.422,12.547,27.969,27.969,27.969h18.741v10c0,16.542,13.458,30,30,30s30-13.458,30-30v-10H405.29v10
			c0,16.542,13.458,30,30,30s30-13.458,30-30v-10h18.741C499.453,471.969,512,459.422,512,444v-74.969
			C512,367.026,511.404,365.163,510.387,363.597z M384,138.031h14.516c0.818,0,1.484,0.666,1.484,1.484v54.063
			c0,0.818-0.666,1.484-1.484,1.484H384V138.031z M36,195.063H21.484c-0.818,0-1.484-0.666-1.484-1.484v-54.063
			c0-0.818,0.666-1.484,1.484-1.484H36V195.063z M400.462,291.031l-23.533,23.533c-3.905,3.905-3.906,10.237,0,14.143
			c1.953,1.952,4.512,2.929,7.071,2.929s5.119-0.977,7.071-2.929l37.676-37.676h4.219c4.131,0,7.937,2.07,10.183,5.536
			l40.459,62.464H292.852l67.604-67.604c0.127-0.127,0.239-0.263,0.357-0.396H400.462z M264.567,359.031h-64.175l40.459-62.464
			c2.246-3.467,6.052-5.536,10.183-5.536h81.534L264.567,359.031z M240.296,136.969c1.953,1.952,4.512,2.929,7.071,2.929
			s5.119-0.977,7.071-2.929l76.938-76.938H364v163.031H70.143L233.174,60.031h69.917l-62.795,62.795
			C236.391,126.731,236.391,133.063,240.296,136.969z M56,37.698c0-9.741,7.925-17.667,17.667-17.667h272.667
			c9.741,0,17.667,7.926,17.667,17.667v2.333H56V37.698z M56,60.031h148.889L56,208.92V60.031z M130,368.031c0,5.514-4.486,10-10,10
			s-10-4.486-10-10v-10h20V368.031z M98,338.031c-23.159,0-42-18.841-42-42v-52.969h308v27.969H251.034
			c-10.94,0-21.022,5.481-26.969,14.663l-33.9,52.337H98z M258.709,481.969c0,5.514-4.486,10-10,10c-5.514,0-10-4.486-10-10v-10h20
			V481.969z M445.291,481.969c0,5.514-4.486,10-10,10c-5.514,0-10-4.486-10-10v-10h20V481.969z M492,444
			c0,4.394-3.575,7.969-7.969,7.969H199.969c-4.394,0-7.969-3.575-7.969-7.969v-64.969h300V444z"/>
	</g>
</g>
<g>
	<g>
		<path d="M387.666,405.5h-91.333c-5.523,0-10,4.478-10,10c0,5.522,4.478,10,10,10h91.333c5.523,0,10-4.478,10-10
			C397.666,409.978,393.189,405.5,387.666,405.5z"/>
	</g>
</g>
<g>
	<g>
		<path d="M263.07,408.43c-1.86-1.86-4.44-2.93-7.07-2.93s-5.21,1.069-7.07,2.93c-1.86,1.86-2.93,4.44-2.93,7.07
			s1.07,5.21,2.93,7.069c1.86,1.86,4.44,2.931,7.07,2.931s5.21-1.07,7.07-2.931c1.86-1.859,2.93-4.439,2.93-7.069
			S264.93,410.29,263.07,408.43z"/>
	</g>
</g>
<g>
	<g>
		<path d="M431.41,408.43c-1.87-1.86-4.45-2.93-7.08-2.93c-2.63,0-5.2,1.069-7.07,2.93c-1.86,1.86-2.93,4.44-2.93,7.07
			s1.07,5.21,2.93,7.069c1.87,1.861,4.44,2.931,7.07,2.931s5.21-1.07,7.08-2.931c1.86-1.859,2.92-4.439,2.92-7.069
			S433.27,410.29,431.41,408.43z"/>
	</g>
</g>
<g>
</g>
<g>
</g>
<g>
</g>
<g>
</g>
<g>
</g>
<g>
</g>
<g>
</g>
<g>
</g>
<g>
</g>
<g>
</g>
<g>
</g>
<g>
</g>
<g>
</g>
<g>
</g>
<g>
</g>
</svg>
