<svg height="512pt" viewBox="0 -76 512 512" width="512pt" xmlns="http://www.w3.org/2000/svg"><path d="m510.414062 128.292969-51.707031-103.417969c-7.671875-15.34375-23.09375-24.875-40.246093-24.875h-373.460938c-24.8125 0-45 20.1875-45 45v240c0 24.8125 20.1875 45 45 45h17.578125c6.195313 17.457031 22.867187 30 42.421875 30 11.515625 0 22.03125-4.355469 30-11.496094 7.96875 7.144532 18.484375 11.496094 30 11.496094 19.554688 0 36.226562-12.542969 42.421875-30h157.15625c6.195313 17.457031 22.867187 30 42.421875 30s36.226562-12.542969 42.421875-30h17.578125c24.8125 0 45-20.1875 45-45v-150c0-2.328125-.542969-4.625-1.585938-6.707031zm-300.414062 21.707031v-60h61v60zm-90 0v-60h60v60zm-90 0v-60h60v60zm271-60h61v60h-61zm91 0h65.730469l24.269531 48.539062v41.460938h-68.785156l-21.214844-21.214844zm-347-60h373.460938c5.714843 0 10.855468 3.175781 13.414062 8.292969l10.855469 21.707031h-412.730469v-15c0-8.269531 6.730469-15 15-15zm60 300c-8.269531 0-15-6.730469-15-15s6.730469-15 15-15 15 6.730469 15 15-6.730469 15-15 15zm60 0c-8.269531 0-15-6.730469-15-15s6.730469-15 15-15 15 6.730469 15 15-6.730469 15-15 15zm242 0c-8.269531 0-15-6.730469-15-15s6.730469-15 15-15 15 6.730469 15 15-6.730469 15-15 15zm60-30h-17.578125c-6.195313-17.457031-22.867187-30-42.421875-30s-36.226562 12.542969-42.421875 30h-157.15625c-6.195313-17.457031-22.867187-30-42.421875-30-11.515625 0-22.03125 4.355469-30 11.496094-7.96875-7.140625-18.484375-11.496094-30-11.496094-19.554688 0-36.226562 12.542969-42.421875 30h-17.578125c-8.269531 0-15-6.730469-15-15v-45h286c8.285156 0 15-6.714844 15-15s-6.714844-15-15-15h-286v-30h340.785156l25.609375 25.605469c2.8125 2.816406 6.625 4.394531 10.605469 4.394531h75v30h-15c-8.285156 0-15 6.714844-15 15s6.714844 15 15 15h15v15c0 8.269531-6.730469 15-15 15zm0 0"/></svg>