<svg height="511pt" viewBox="-52 0 511 511.99957" width="511pt" xmlns="http://www.w3.org/2000/svg"><path d="m349.378906 60.726562c-37.773437-38.320312-88.179687-59.878906-141.9375-60.7031245-54.589844-.8242185-106.414062 20.0859375-145.835937 58.9101565-39.40625 38.804687-61.105469 90.238281-61.105469 144.824218 0 48.035157 17.03125 94.648438 47.972656 131.320313.113282.152344.230469.296875.359375.441406l.492188.5625c.917969 1.074219 1.847656 2.136719 2.738281 3.136719l86.597656 99.089844c2.726563 3.121094 7.464844 3.4375 10.585938.710937 3.117187-2.726562 3.4375-7.464843.710937-10.585937l-86.644531-99.140625c-.871094-.980469-1.734375-1.964844-2.636719-3.019531l-.242187-.277344c-.070313-.089844-.140625-.175782-.210938-.261719-28.835937-34.015625-44.71875-77.335937-44.71875-121.976563 0-50.535156 20.113282-98.171874 56.628906-134.132812 36.535157-35.984375 84.476563-55.347656 135.078126-54.597656 49.792968.761718 96.492187 20.734375 131.480468 56.234375 35.03125 35.535156 54.320313 82.59375 54.320313 132.496093 0 44.640626-15.878907 87.960938-44.71875 121.976563-.148438.175781-.285157.355469-.414063.542969l-135.886718 170.074218c-.414063.515626-.9375.636719-1.300782.644532-.363281.003906-.894531-.085938-1.328125-.585938l-39.734375-45.464844c-2.726562-3.121093-7.464844-3.441406-10.585937-.714843-3.121094 2.726562-3.4375 7.46875-.710938 10.585937l39.734375 45.464844c3.183594 3.648438 7.753906 5.71875 12.582032 5.71875.125 0 .25 0 .375-.003906 4.964843-.109375 9.589843-2.398438 12.691406-6.277344l136.183594-170.449219c.054687-.066406.105468-.132812.152343-.203125 30.933594-36.667968 47.964844-83.28125 47.964844-131.308594.003906-53.871093-20.820313-104.667968-58.636719-143.03125zm0 0"/><path d="m145.0625 323.59375h18.359375c8.453125 0 15.328125-6.875 15.328125-15.328125v-18.832031h51.019531v18.832031c0 8.453125 6.875 15.328125 15.328125 15.328125h18.359375c8.453125 0 15.328125-6.875 15.328125-15.328125v-18.8125c9.273438-1.058594 16.503906-8.941406 16.503906-18.496094v-36.398437c0-4.144532-3.359374-7.503906-7.5-7.503906-4.144531 0-7.503906 3.359374-7.503906 7.503906v12.511718h-15.476562c-6.339844 0-11.984375 3.796876-14.371094 9.671876l-7.183594 17.6875h-77.917968l-7.1875-17.6875c-2.386719-5.875-8.027344-9.671876-14.371094-9.671876h-15.542969v-140.242187c13.320313-9.433594 40.628906-24.691406 77.445313-24.316406 35.457031.382812 61.773437 15.21875 74.605468 24.3125v98.230469c0 4.140624 3.359375 7.5 7.503906 7.5 4.140626 0 7.5-3.359376 7.5-7.5v-53.519532h13.003907v23.507813c0 4.144531 3.359375 7.503906 7.503906 7.503906s7.503906-3.359375 7.503906-7.503906v-24.296875c0-7.835938-6.378906-14.214844-14.21875-14.214844h-13.792969v-30.34375c0-4.425781-2.140624-8.605469-5.730468-11.179688-14.066406-10.085937-43.648438-27.066406-83.714844-27.5-41.535156-.457031-72.273438 17.035157-86.882812 27.5-3.585938 2.574219-5.730469 6.753907-5.730469 11.179688v30.34375h-13.722657c-7.839843 0-14.21875 6.375-14.21875 14.214844v24.296875c0 4.144531 3.359376 7.503906 7.503907 7.503906 4.140625 0 7.5-3.359375 7.5-7.503906v-23.507813h12.9375v119.269532c0 2.617187.546875 5.105468 1.523437 7.367187 2.554688 6.054687 8.222656 10.472656 14.980469 11.269531v18.824219c0 8.453125 6.875 15.328125 15.328125 15.328125zm18.683594-15.328125c0 .179687-.144532.324219-.324219.324219h-18.359375c-.179688 0-.324219-.144532-.324219-.324219v-18.683594h19.007813zm100.03125 0c0 .179687-.144532.324219-.324219.324219h-18.359375c-.175781 0-.320312-.144532-.320312-.324219v-18.683594h19.003906zm.5625-45.875c.078125-.191406.261718-.316406.46875-.316406h15.476562v8.734375c0 1.996094-1.625 3.617187-3.621094 3.617187h-17.214843zm-136.035156-.316406h15.472656c.207031 0 .394531.125.46875.316406l4.890625 12.039063h-17.28125c-1.457031 0-2.710938-.871094-3.285157-2.117188-.167968-.417969-.265624-.875-.265624-1.355469zm0 0"/><path d="m272.851562 197.816406v-67.050781c0-8.128906-6.613281-14.742187-14.738281-14.742187h-106.566406c-8.128906 0-14.742187 6.613281-14.742187 14.742187v9.757813c0 4.144531 3.359374 7.503906 7.503906 7.503906 4.144531 0 7.503906-3.359375 7.503906-7.503906v-9.492188h106.035156v66.519531h-106.035156v-27.015625c0-4.144531-3.359375-7.503906-7.503906-7.503906-4.144532 0-7.503906 3.359375-7.503906 7.503906v27.28125c0 8.128906 6.613281 14.742188 14.742187 14.742188h106.566406c8.125 0 14.738281-6.613282 14.738281-14.742188zm0 0"/><path d="m174.820312 229.5625c-4.144531 0-7.503906 3.359375-7.503906 7.503906 0 4.144532 3.359375 7.5 7.503906 7.5h58.019532c4.140625 0 7.5-3.355468 7.5-7.5 0-4.144531-3.359375-7.503906-7.5-7.503906zm0 0"/><path d="m215.832031 107.523438c4.144531 0 7.503907-3.359376 7.503907-7.503907s-3.359376-7.503906-7.503907-7.503906h-24.007812c-4.144531 0-7.503907 3.359375-7.503907 7.503906s3.359376 7.503907 7.503907 7.503907zm0 0"/></svg>