<svg height="512pt" viewBox="0 -102 512 512" width="512pt" xmlns="http://www.w3.org/2000/svg"><path d="m416 47.5v60l63.070312 9.800781c9.742188 1.511719 16.929688 9.902344 16.929688 19.761719v57.9375h1c4.140625 0 7.5 3.355469 7.5 7.5v37.5c0 4.140625-3.359375 7.5-7.5 7.5h-472c-4.140625 0-7.5-3.359375-7.5-7.5v-192.5c0-22.089844 17.910156-40 40-40h318.5c22.089844 0 40 17.910156 40 40zm0 0" fill="#ffcf5d"/><path d="m504.5 240v-37.5c0-4.140625-3.359375-7.5-7.5-7.5h-1v-57.9375c0-9.859375-7.1875-18.25-16.929688-19.761719l-63.070312-9.800781v-60c0-10.808594-4.292969-20.609375-11.261719-27.804688-10.984375 4.453126-18.738281 15.21875-18.738281 27.804688v60c0 14.789062 10.777344 27.375 25.394531 29.644531l54.605469 8.484375v71.871094h-448.5v22.5c0 4.140625 3.359375 7.5 7.5 7.5h472c4.140625 0 7.5-3.359375 7.5-7.5zm0 0" fill="#ff983b"/><path d="m15 195h15c4.140625 0 7.5 3.359375 7.5 7.5v45h-22.5c-4.140625 0-7.5-3.359375-7.5-7.5v-37.5c0-4.140625 3.359375-7.5 7.5-7.5zm0 0" fill="#596775"/><path d="m497 195h-15c-4.140625 0-7.5 3.359375-7.5 7.5v45h22.5c4.140625 0 7.5-3.359375 7.5-7.5v-37.5c0-4.140625-3.359375-7.5-7.5-7.5zm0 0" fill="#35404a"/><path d="m422 300c-28.949219 0-52.5-23.550781-52.5-52.5s23.550781-52.5 52.5-52.5 52.5 23.550781 52.5 52.5-23.550781 52.5-52.5 52.5zm0 0" fill="#596775"/><path d="m432.734375 196.105469c-6.152344 11.371093-4.433594 25.875 5.175781 35.484375l-31.816406 31.820312c-9.609375-9.609375-24.113281-11.332031-35.484375-5.179687 4.96875 23.820312 26.121094 41.769531 51.394531 41.769531 28.945313 0 52.5-23.550781 52.5-52.5-.003906-25.273438-17.953125-46.425781-41.769531-51.394531zm0 0" fill="#35404a"/><path d="m444.5 247.5c0 12.425781-10.074219 22.5-22.5 22.5s-22.5-10.074219-22.5-22.5 10.074219-22.5 22.5-22.5 22.5 10.074219 22.5 22.5zm0 0" fill="#e9e3d5"/><path d="m118.5 300c-28.949219 0-52.5-23.550781-52.5-52.5s23.550781-52.5 52.5-52.5 52.5 23.550781 52.5 52.5-23.550781 52.5-52.5 52.5zm0 0" fill="#596775"/><path d="m129.234375 196.105469c-6.15625 11.371093-4.433594 25.875 5.175781 35.484375l-31.820312 31.820312c-9.609375-9.609375-24.113282-11.332031-35.480469-5.179687 4.964844 23.820312 26.121094 41.769531 51.390625 41.769531 28.949219 0 52.5-23.550781 52.5-52.5 0-25.273438-17.949219-46.425781-41.765625-51.394531zm0 0" fill="#35404a"/><path d="m141 247.5c0 12.425781-10.074219 22.5-22.5 22.5s-22.5-10.074219-22.5-22.5 10.074219-22.5 22.5-22.5 22.5 10.074219 22.5 22.5zm0 0" fill="#e9e3d5"/><path d="m259.5 52.5v195h80l-40-195zm0 0" fill="#87f8f4"/><path d="m299.5 52.5v165h-40v30h80c0-19.015625 0-189.160156 0-195zm0 0" fill="#00d3d8"/><path d="m369.5 52.5h46.5v55h-46.5zm0 0" fill="#00d3d8"/><path d="m17.5 52.5v80h212v-80c-6.617188 0-198.421875 0-212 0zm0 0" fill="#87f8f4"/><path d="m199.5 52.5v50h-50v-50h-30v50h-50v-50h-30v50h-22v30h212v-80c-1.535156 0-13.054688 0-30 0zm0 0" fill="#00d3d8"/><path d="m503.5 188.980469v-51.917969c0-13.652344-9.789062-25.078125-23.277344-27.175781l-56.722656-8.8125v-53.574219c0-26.191406-21.308594-47.5-47.5-47.5h-318.5c-26.191406 0-47.5 21.308594-47.5 47.5v140.875c-5.816406 2.066406-10 7.609375-10 14.125v37.5c0 8.269531 6.730469 15 15 15h43.984375c3.707031 29.554688 28.972656 52.5 59.515625 52.5s55.8125-22.945312 59.515625-52.5h184.472656c3.703125 29.554688 28.972657 52.5 59.515625 52.5 30.542969 0 55.808594-22.945312 59.511719-52.5h15.484375c8.269531 0 15-6.730469 15-15v-37.5c0-5.941406-3.476562-11.089844-8.5-13.519531zm-473.5 51.019531h-15l-.011719-37.5h.011719 15zm88.5 52.5c-24.8125 0-45-20.1875-45-45s20.1875-45 45-45 45 20.1875 45 45-20.1875 45-45 45zm213.5-52.5h-25v-100h25zm0-115h-25v-65h25zm-40 0h-25v-65h25zm-25 15h25v100h-25zm155 152.5c-24.8125 0-45-20.1875-45-45s20.1875-45 45-45 45 20.1875 45 45-20.1875 45-45 45zm75-52.5h-15.484375c-3.703125-29.554688-28.972656-52.5-59.515625-52.5s-55.808594 22.945312-59.515625 52.5h-15.484375v-187.5c0-4.144531-3.355469-7.5-7.5-7.5h-80c-4.140625 0-7.5 3.355469-7.5 7.5v187.5h-73.984375c-3.707031-29.554688-28.972656-52.5-59.515625-52.5s-55.808594 22.945312-59.515625 52.5h-13.984375v-45c0-4.144531-3.359375-7.5-7.5-7.5h-12.5v-127.5h37v65h-14.5c-4.128906 0-7.5 3.359375-7.5 7.5s3.371094 7.5 7.5 7.5h182c4.140625 0 7.5-3.355469 7.5-7.5v-80c0-4.144531-3.359375-7.5-7.5-7.5-8.136719 0-194.742188 0-204.394531 0 1.28125-16.757812 15.316406-30 32.394531-30h318.5c17.078125 0 31.113281 13.242188 32.394531 30h-38.894531c-4.109375 0-7.5 3.34375-7.5 7.5v55c0 4.160156 3.394531 7.5 7.5 7.5h16.5c4.128906 0 7.5-3.359375 7.5-7.5 0-4.128906-3.359375-7.488281-7.488281-7.5h-9.011719v-40h31.5v47.5c0 3.671875 2.691406 6.84375 6.347656 7.410156l63.070313 9.800782c6.132812.953124 10.582031 6.148437 10.582031 12.351562v50.4375h-4.5c-4.144531 0-7.5 3.359375-7.5 7.5 0 4.144531 3.355469 7.5 7.5 7.5h13zm-355-180v65h-65v-65zm80 0v65h-65v-65zm0 0"/><path d="m138.609375 234.898438c-4.019531.980468-6.5 5.039062-5.53125 9.0625 0 0 0 .007812.011719.007812.269531 1.152344.410156 2.339844.410156 3.53125-.019531 8.261719-6.738281 14.980469-15 15-8.261719-.019531-14.988281-6.738281-15-15 .011719-8.261719 6.738281-14.988281 15-15 4.140625 0 7.5-3.359375 7.5-7.5 0-4.128906-3.351562-7.488281-7.480469-7.5-.007812 0-.007812 0-.019531 0-16.535156 0-30 13.371094-30 30 0 16.597656 13.4375 30 30 30 16.566406 0 30-13.402344 30-30 0-2.390625-.28125-4.769531-.839844-7.070312-.980468-4.046876-5.015625-6.5-9.050781-5.53125zm0 0"/><path d="m442.109375 234.898438c-4.019531.980468-6.5 5.039062-5.53125 9.0625 0 0 0 .007812.011719.007812.269531 1.140625.410156 2.332031.410156 3.53125-.019531 8.261719-6.75 14.980469-15 15-8.25-.019531-14.980469-6.738281-15-15 .019531-8.261719 6.75-14.988281 15-15 4.140625 0 7.5-3.359375 7.5-7.5 0-4.128906-3.351562-7.488281-7.480469-7.5-.007812 0-.007812 0-.019531 0-16.53125 0-30 13.367188-30 30 0 16.597656 13.4375 30 30 30 16.566406 0 30-13.40625 30-30 0-2.390625-.28125-4.769531-.839844-7.070312-.984375-4.058594-5.023437-6.5-9.050781-5.53125zm0 0"/></svg>