<?xml version="1.0" encoding="iso-8859-1"?>
<!-- Generator: Adobe Illustrator 19.0.0, SVG Export Plug-In . SVG Version: 6.00 Build 0)  -->
<svg version="1.1" id="Layer_1" xmlns="http://www.w3.org/2000/svg" xmlns:xlink="http://www.w3.org/1999/xlink" x="0px" y="0px"
	 viewBox="0 0 299.044 299.044" style="enable-background:new 0 0 299.044 299.044;" xml:space="preserve">
<g id="XMLID_1569_">
	<g>
		<g>
			<path d="M291.037,52.054h-19.889V16.965c0-3.706-3.004-6.709-6.709-6.709H136.054c-3.706,0-6.709,3.004-6.709,6.709v35.088
				h-11.471c10.466,7.699,16.76,19.859,16.825,32.915l0.414,82.514c0.682,0.096,0.59,0.073,4.298,0.073v13.954
				c0,8.795,7.13,15.925,15.925,15.925c8.795,0,15.925-7.13,15.925-15.925v-13.954h57.968v13.954c0,8.795,7.13,15.925,15.925,15.925
				s15.925-7.13,15.925-15.925v-13.954h3.359c3.706,0,6.709-3.004,6.709-6.709v-47.03h19.889c3.706,0,6.709-3.004,6.709-6.709
				V58.763h0C297.746,55.058,294.743,52.054,291.037,52.054z M146.671,47.061c0-2.215,1.796-4.011,4.011-4.011h99.129
				c2.215,0,4.011,1.796,4.011,4.011v45.523c0,2.215-1.796,4.011-4.011,4.011h-99.129c-2.215,0-4.011-1.796-4.011-4.011V47.061z
				 M157.346,155.366c-8.111,0-14.686-6.575-14.686-14.687c0-8.111,6.575-14.687,14.686-14.687c8.111,0,14.687,6.575,14.687,14.687
				C172.033,148.79,165.458,155.366,157.346,155.366z M243.146,155.366c-8.111,0-14.686-6.575-14.686-14.687
				c0-8.111,6.575-14.687,14.686-14.687c8.111,0,14.687,6.575,14.687,14.687C257.833,148.79,251.258,155.366,243.146,155.366z"/>
			<path d="M61.818,49.226c13.554,0,24.613-11.003,24.613-24.613C86.431,11.019,75.411,0,61.818,0S37.205,11.019,37.205,24.613
				C37.205,38.257,48.297,49.226,61.818,49.226z"/>
			<path d="M98.088,57.437c-3.156-0.515,1.046-0.365-68.249-0.365c-15.419,0-28.026,12.544-28.104,27.963l-0.438,87.247
				c-0.033,6.559,5.257,11.903,11.816,11.935c0.02,0,0.041,0,0.061,0c6.531,0,11.842-5.278,11.875-11.816l0.438-87.248
				c0-0.001,0-0.001,0-0.001c0.006-1.264,1.035-2.284,2.299-2.281c1.264,0.003,2.287,1.03,2.287,2.294
				c0.001,28.378,0.005,186.637,0.005,199.627c0,7.871,6.38,14.251,14.251,14.251s14.251-6.38,14.251-14.251V170.882h6.154v113.911
				c0,7.871,6.38,14.251,14.251,14.251s14.251-6.38,14.251-14.251c0-195.493-0.253-74.027-0.259-199.625
				c0-1.37,1.108-2.481,2.478-2.486c1.37-0.005,2.485,1.101,2.492,2.472l0.438,87.248c0.033,6.539,5.344,11.816,11.875,11.816
				c0.019,0,0.041,0,0.061,0c6.559-0.033,11.849-5.377,11.816-11.935l-0.438-87.248C121.638,71.352,111.601,59.643,98.088,57.437z"
				/>
		</g>
	</g>
</g>
<g>
</g>
<g>
</g>
<g>
</g>
<g>
</g>
<g>
</g>
<g>
</g>
<g>
</g>
<g>
</g>
<g>
</g>
<g>
</g>
<g>
</g>
<g>
</g>
<g>
</g>
<g>
</g>
<g>
</g>
</svg>
