<?xml version="1.0" encoding="iso-8859-1"?>
<!-- Generator: Adobe Illustrator 21.0.0, SVG Export Plug-In . SVG Version: 6.00 Build 0)  -->
<svg version="1.1" id="Capa_1" xmlns="http://www.w3.org/2000/svg" xmlns:xlink="http://www.w3.org/1999/xlink" x="0px" y="0px"
	 viewBox="0 0 512.005 512.005" style="enable-background:new 0 0 512.005 512.005;" xml:space="preserve">
<g transform="translate(-1)">
	<g>
		<g>
			<path d="M503.909,468.885l-62.848-230.4c-4.067-14.838-17.545-25.13-32.93-25.148h-16.845
				c6.856-22.12,10.491-45.111,10.795-68.267C401.747,66.048,338.486,1.693,259.48,0.004h-2.466
				c-74.257-0.567-136.775,55.411-144.384,129.28c-1.945,28.401,1.471,56.915,10.069,84.053h-16.802
				c-15.382,0.021-28.855,10.313-32.922,25.148L45.498,339.179v0.06L10.127,468.885c-2.801,10.266-0.655,21.25,5.805,29.706
				c6.46,8.456,16.493,13.416,27.134,13.413h427.895c10.648,0.039,20.695-4.929,27.128-13.414c0.945-1.351,1.792-2.769,2.534-4.241
				c0.273-0.381,0.516-0.784,0.725-1.203C505.194,485.66,506.107,477.009,503.909,468.885z M408.131,230.404
				c7.695,0.002,14.437,5.154,16.461,12.578l9.643,35.371L315.715,420.57l-38.212-12.8
				c27.921-32.862,81.263-101.914,108.177-177.365H408.131z M129.628,130.786c6.799-65.076,61.959-114.316,127.386-113.715h2.202
				c69.701,1.503,125.505,58.283,125.798,128c-0.435,24.936-4.857,49.643-13.099,73.182c-0.149,0.372-0.272,0.754-0.367,1.143
				c-25.446,75.546-80.538,146.27-108.083,178.577c-1.591,1.889-3.939,2.974-6.409,2.961c-0.068,0-0.128-0.043-0.205-0.043
				l-4.318-1.442c-0.758-0.418-1.448-0.947-2.048-1.57C219.783,361.86,120.31,236.139,129.628,130.786z M89.436,242.974
				c2.027-7.421,8.768-12.568,16.461-12.57h22.391c22.426,62.908,63.283,121.421,92.74,158.515L63.956,336.405L89.436,242.974z
				 M43.1,494.938c-5.337,0.028-10.375-2.456-13.602-6.707c-3.241-4.221-4.309-9.72-2.884-14.848l20.548-75.349l89.412,29.867
				l-55.927,67.038H43.1z M162.934,494.938l37.939-45.525l136.277,45.525H162.934z M471.004,494.938h-80.017l-190.293-63.565h-0.119
				c-0.66-0.159-1.335-0.242-2.014-0.247c-0.423-0.077-0.851-0.125-1.28-0.145c-0.522,0.092-1.033,0.235-1.527,0.427
				c-0.545,0.104-1.079,0.258-1.596,0.461c-0.328,0.222-0.641,0.464-0.939,0.725c-0.622,0.374-1.196,0.824-1.707,1.34l-0.094,0.077
				l-50.705,60.928h-37.845l54.793-65.707c0.032-0.052,0.06-0.106,0.085-0.162c0.636-0.759,1.13-1.626,1.459-2.56v-0.102
				c0.199-0.754,0.294-1.532,0.282-2.313c0-0.341,0.128-0.674,0.102-0.998c-0.098-0.583-0.256-1.155-0.469-1.707
				c-0.095-0.49-0.235-0.97-0.418-1.434c-0.2-0.338-0.426-0.66-0.674-0.964c-0.379-0.626-0.838-1.199-1.365-1.707l-0.077-0.094
				c-0.411-0.277-0.849-0.515-1.306-0.708c-0.453-0.334-0.939-0.62-1.451-0.853L51.651,381.495l7.817-28.646l185.796,62.114
				c2.37,1.251,4.926,2.116,7.569,2.56l62.848,21.009l0.145,0.043c0.87,0.299,1.785,0.452,2.705,0.452
				c1.096-0.024,2.178-0.262,3.183-0.7c0.266-0.115,0.526-0.247,0.777-0.393c0.837-0.433,1.591-1.011,2.227-1.707
				c0.111-0.111,0.265-0.154,0.375-0.282l114.628-137.498l9.335,34.227l-90.061,108.075c-0.303,0.452-0.563,0.932-0.777,1.434
				c-0.297,0.42-0.552,0.869-0.759,1.34v0.102c-0.193,0.735-0.285,1.493-0.273,2.253c-0.058,0.35-0.095,0.703-0.111,1.058
				c0.096,0.584,0.253,1.156,0.469,1.707c0.099,0.501,0.242,0.992,0.427,1.468c0.215,0.325,0.452,0.636,0.708,0.93
				c0.377,0.625,0.833,1.198,1.357,1.707l0.068,0.085c0.805,0.665,1.724,1.177,2.714,1.51h0.06l44.894,14.933
				c0.196,0.068,0.393,0.119,0.597,0.171l70.511,23.535C476.453,494.265,473.749,494.936,471.004,494.938z M413.242,453.056
				c-0.205-0.068-0.41-0.128-0.631-0.179l-32.486-10.846l74.411-89.301l32.879,120.653c0.399,1.52,0.586,3.088,0.555,4.659
				L413.242,453.056z"/>
			<path d="M303.956,221.911c14.838,0,27.402-10.943,29.44-25.64h8.457c10.143,0.035,19.395-5.785,23.757-14.942
				c3.265-9.621,2.805-20.116-1.289-29.414c-0.606-1.997-1.195-3.917-1.63-5.7l-1.34-5.521c-2.278-9.387-4.548-18.722-6.827-28.288
				l-0.265-1.007c-0.945-4.48-2.492-8.812-4.599-12.877c-4.518-8.228-13.202-13.297-22.588-13.184H172.022
				c-9.516-0.085-17.305,7.551-17.408,17.067v76.8c0.103,9.516,7.892,17.152,17.408,17.067h17.161
				c2.038,14.697,14.602,25.64,29.44,25.64s27.402-10.943,29.44-25.64h26.453C276.553,210.968,289.118,221.911,303.956,221.911z
				 M303.947,204.804c-7.069,0-12.8-5.731-12.8-12.8c0-7.069,5.731-12.8,12.8-12.8c7.069,0,12.8,5.731,12.8,12.8
				C316.747,199.074,311.016,204.804,303.947,204.804z M257.014,102.404h25.6v25.6h-25.6V102.404z M214.347,102.404h25.6v25.6h-25.6
				V102.404z M172.022,102.404h25.259v25.6h-25.37L172.022,102.404z M218.614,204.804c-7.069,0-12.8-5.731-12.8-12.8
				c0-7.069,5.731-12.8,12.8-12.8c7.069,0,12.8,5.731,12.8,12.8C231.414,199.074,225.683,204.804,218.614,204.804z M245.485,179.162
				c-4.888-10.426-15.365-17.085-26.88-17.085c-11.515,0-21.992,6.659-26.88,17.085l-20.045,0.043l0.154-34.133h144.913
				c4.713,0,8.533-3.82,8.533-8.533s-3.82-8.533-8.533-8.533H299.68v-25.6h27.392c3.231-0.11,6.24,1.641,7.74,4.506
				c1.328,2.762,2.311,5.676,2.927,8.678l0.222,0.853c2.219,9.446,4.497,18.833,6.827,28.254l1.34,5.521
				c0.503,2.082,1.186,4.318,1.894,6.647c2.406,5.385,3.158,11.364,2.159,17.178c-1.594,3.124-4.796,5.098-8.303,5.12h-11.059
				c-4.888-10.426-15.365-17.085-26.88-17.085s-21.992,6.659-26.88,17.085H245.485z"/>
		</g>
	</g>
</g>
<g>
</g>
<g>
</g>
<g>
</g>
<g>
</g>
<g>
</g>
<g>
</g>
<g>
</g>
<g>
</g>
<g>
</g>
<g>
</g>
<g>
</g>
<g>
</g>
<g>
</g>
<g>
</g>
<g>
</g>
</svg>
